<?xml version="1.0" encoding="utf-8" standalone="no"?>
<!DOCTYPE svg PUBLIC "-//W3C//DTD SVG 1.1//EN"
  "http://www.w3.org/Graphics/SVG/1.1/DTD/svg11.dtd">
<svg height="720pt" version="1.1" viewBox="0 0 1008 720" width="1008pt" xmlns="http://www.w3.org/2000/svg" xmlns:xlink="http://www.w3.org/1999/xlink">
 <metadata>
  <rdf:RDF xmlns:cc="http://creativecommons.org/ns#" xmlns:dc="http://purl.org/dc/elements/1.1/" xmlns:rdf="http://www.w3.org/1999/02/22-rdf-syntax-ns#">
   <cc:Work>
    <dc:type rdf:resource="http://purl.org/dc/dcmitype/StillImage"/>
    <dc:date>2022-04-12T09:28:53.285861</dc:date>
    <dc:format>image/svg+xml</dc:format>
    <dc:creator>
     <cc:Agent>
      <dc:title>Matplotlib v3.4.2, https://matplotlib.org/</dc:title>
     </cc:Agent>
    </dc:creator>
   </cc:Work>
  </rdf:RDF>
 </metadata>
 <defs>
  <style type="text/css">*{stroke-linecap:butt;stroke-linejoin:round;}</style>
 </defs>
 <g id="figure_1">
  <g id="patch_1">
   <path d="M 0 720 
L 1008 720 
L 1008 0 
L 0 0 
z
" style="fill:#ffffff;"/>
  </g>
  <g id="axes_1">
   <g id="patch_2">
    <path d="M 126 640.8 
L 907.2 640.8 
L 907.2 86.4 
L 126 86.4 
z
" style="fill:#eaeaf2;"/>
   </g>
   <g id="matplotlib.axis_1">
    <g id="xtick_1">
     <g id="line2d_1">
      <path clip-path="url(#pd69824afae)" d="M 126 640.8 
L 126 86.4 
" style="fill:none;stroke:#ffffff;stroke-linecap:round;"/>
     </g>
     <g id="text_1">
      <!-- 0.0 -->
      <g style="fill:#262626;" transform="translate(118.355 658.173594)scale(0.11 -0.11)">
       <defs>
        <path d="M 266 2259 
Q 266 3072 433 3567 
Q 600 4063 929 4331 
Q 1259 4600 1759 4600 
Q 2128 4600 2406 4451 
Q 2684 4303 2865 4023 
Q 3047 3744 3150 3342 
Q 3253 2941 3253 2259 
Q 3253 1453 3087 958 
Q 2922 463 2592 192 
Q 2263 -78 1759 -78 
Q 1097 -78 719 397 
Q 266 969 266 2259 
z
M 844 2259 
Q 844 1131 1108 757 
Q 1372 384 1759 384 
Q 2147 384 2411 759 
Q 2675 1134 2675 2259 
Q 2675 3391 2411 3762 
Q 2147 4134 1753 4134 
Q 1366 4134 1134 3806 
Q 844 3388 844 2259 
z
" id="ArialMT-30" transform="scale(0.015625)"/>
        <path d="M 581 0 
L 581 641 
L 1222 641 
L 1222 0 
L 581 0 
z
" id="ArialMT-2e" transform="scale(0.015625)"/>
       </defs>
       <use xlink:href="#ArialMT-30"/>
       <use x="55.615234" xlink:href="#ArialMT-2e"/>
       <use x="83.398438" xlink:href="#ArialMT-30"/>
      </g>
     </g>
    </g>
    <g id="xtick_2">
     <g id="line2d_2">
      <path clip-path="url(#pd69824afae)" d="M 282.24 640.8 
L 282.24 86.4 
" style="fill:none;stroke:#ffffff;stroke-linecap:round;"/>
     </g>
     <g id="text_2">
      <!-- 0.2 -->
      <g style="fill:#262626;" transform="translate(274.595 658.173594)scale(0.11 -0.11)">
       <defs>
        <path d="M 3222 541 
L 3222 0 
L 194 0 
Q 188 203 259 391 
Q 375 700 629 1000 
Q 884 1300 1366 1694 
Q 2113 2306 2375 2664 
Q 2638 3022 2638 3341 
Q 2638 3675 2398 3904 
Q 2159 4134 1775 4134 
Q 1369 4134 1125 3890 
Q 881 3647 878 3216 
L 300 3275 
Q 359 3922 746 4261 
Q 1134 4600 1788 4600 
Q 2447 4600 2831 4234 
Q 3216 3869 3216 3328 
Q 3216 3053 3103 2787 
Q 2991 2522 2730 2228 
Q 2469 1934 1863 1422 
Q 1356 997 1212 845 
Q 1069 694 975 541 
L 3222 541 
z
" id="ArialMT-32" transform="scale(0.015625)"/>
       </defs>
       <use xlink:href="#ArialMT-30"/>
       <use x="55.615234" xlink:href="#ArialMT-2e"/>
       <use x="83.398438" xlink:href="#ArialMT-32"/>
      </g>
     </g>
    </g>
    <g id="xtick_3">
     <g id="line2d_3">
      <path clip-path="url(#pd69824afae)" d="M 438.48 640.8 
L 438.48 86.4 
" style="fill:none;stroke:#ffffff;stroke-linecap:round;"/>
     </g>
     <g id="text_3">
      <!-- 0.4 -->
      <g style="fill:#262626;" transform="translate(430.835 658.173594)scale(0.11 -0.11)">
       <defs>
        <path d="M 2069 0 
L 2069 1097 
L 81 1097 
L 81 1613 
L 2172 4581 
L 2631 4581 
L 2631 1613 
L 3250 1613 
L 3250 1097 
L 2631 1097 
L 2631 0 
L 2069 0 
z
M 2069 1613 
L 2069 3678 
L 634 1613 
L 2069 1613 
z
" id="ArialMT-34" transform="scale(0.015625)"/>
       </defs>
       <use xlink:href="#ArialMT-30"/>
       <use x="55.615234" xlink:href="#ArialMT-2e"/>
       <use x="83.398438" xlink:href="#ArialMT-34"/>
      </g>
     </g>
    </g>
    <g id="xtick_4">
     <g id="line2d_4">
      <path clip-path="url(#pd69824afae)" d="M 594.72 640.8 
L 594.72 86.4 
" style="fill:none;stroke:#ffffff;stroke-linecap:round;"/>
     </g>
     <g id="text_4">
      <!-- 0.6 -->
      <g style="fill:#262626;" transform="translate(587.075 658.173594)scale(0.11 -0.11)">
       <defs>
        <path d="M 3184 3459 
L 2625 3416 
Q 2550 3747 2413 3897 
Q 2184 4138 1850 4138 
Q 1581 4138 1378 3988 
Q 1113 3794 959 3422 
Q 806 3050 800 2363 
Q 1003 2672 1297 2822 
Q 1591 2972 1913 2972 
Q 2475 2972 2870 2558 
Q 3266 2144 3266 1488 
Q 3266 1056 3080 686 
Q 2894 316 2569 119 
Q 2244 -78 1831 -78 
Q 1128 -78 684 439 
Q 241 956 241 2144 
Q 241 3472 731 4075 
Q 1159 4600 1884 4600 
Q 2425 4600 2770 4297 
Q 3116 3994 3184 3459 
z
M 888 1484 
Q 888 1194 1011 928 
Q 1134 663 1356 523 
Q 1578 384 1822 384 
Q 2178 384 2434 671 
Q 2691 959 2691 1453 
Q 2691 1928 2437 2201 
Q 2184 2475 1800 2475 
Q 1419 2475 1153 2201 
Q 888 1928 888 1484 
z
" id="ArialMT-36" transform="scale(0.015625)"/>
       </defs>
       <use xlink:href="#ArialMT-30"/>
       <use x="55.615234" xlink:href="#ArialMT-2e"/>
       <use x="83.398438" xlink:href="#ArialMT-36"/>
      </g>
     </g>
    </g>
    <g id="xtick_5">
     <g id="line2d_5">
      <path clip-path="url(#pd69824afae)" d="M 750.96 640.8 
L 750.96 86.4 
" style="fill:none;stroke:#ffffff;stroke-linecap:round;"/>
     </g>
     <g id="text_5">
      <!-- 0.8 -->
      <g style="fill:#262626;" transform="translate(743.315 658.173594)scale(0.11 -0.11)">
       <defs>
        <path d="M 1131 2484 
Q 781 2613 612 2850 
Q 444 3088 444 3419 
Q 444 3919 803 4259 
Q 1163 4600 1759 4600 
Q 2359 4600 2725 4251 
Q 3091 3903 3091 3403 
Q 3091 3084 2923 2848 
Q 2756 2613 2416 2484 
Q 2838 2347 3058 2040 
Q 3278 1734 3278 1309 
Q 3278 722 2862 322 
Q 2447 -78 1769 -78 
Q 1091 -78 675 323 
Q 259 725 259 1325 
Q 259 1772 486 2073 
Q 713 2375 1131 2484 
z
M 1019 3438 
Q 1019 3113 1228 2906 
Q 1438 2700 1772 2700 
Q 2097 2700 2305 2904 
Q 2513 3109 2513 3406 
Q 2513 3716 2298 3927 
Q 2084 4138 1766 4138 
Q 1444 4138 1231 3931 
Q 1019 3725 1019 3438 
z
M 838 1322 
Q 838 1081 952 856 
Q 1066 631 1291 507 
Q 1516 384 1775 384 
Q 2178 384 2440 643 
Q 2703 903 2703 1303 
Q 2703 1709 2433 1975 
Q 2163 2241 1756 2241 
Q 1359 2241 1098 1978 
Q 838 1716 838 1322 
z
" id="ArialMT-38" transform="scale(0.015625)"/>
       </defs>
       <use xlink:href="#ArialMT-30"/>
       <use x="55.615234" xlink:href="#ArialMT-2e"/>
       <use x="83.398438" xlink:href="#ArialMT-38"/>
      </g>
     </g>
    </g>
    <g id="xtick_6">
     <g id="line2d_6">
      <path clip-path="url(#pd69824afae)" d="M 907.2 640.8 
L 907.2 86.4 
" style="fill:none;stroke:#ffffff;stroke-linecap:round;"/>
     </g>
     <g id="text_6">
      <!-- 1.0 -->
      <g style="fill:#262626;" transform="translate(899.555 658.173594)scale(0.11 -0.11)">
       <defs>
        <path d="M 2384 0 
L 1822 0 
L 1822 3584 
Q 1619 3391 1289 3197 
Q 959 3003 697 2906 
L 697 3450 
Q 1169 3672 1522 3987 
Q 1875 4303 2022 4600 
L 2384 4600 
L 2384 0 
z
" id="ArialMT-31" transform="scale(0.015625)"/>
       </defs>
       <use xlink:href="#ArialMT-31"/>
       <use x="55.615234" xlink:href="#ArialMT-2e"/>
       <use x="83.398438" xlink:href="#ArialMT-30"/>
      </g>
     </g>
    </g>
    <g id="text_7">
     <!-- False Positive Rate -->
     <g style="fill:#262626;" transform="translate(464.91375 672.949219)scale(0.12 -0.12)">
      <defs>
       <path d="M 525 0 
L 525 4581 
L 3616 4581 
L 3616 4041 
L 1131 4041 
L 1131 2622 
L 3281 2622 
L 3281 2081 
L 1131 2081 
L 1131 0 
L 525 0 
z
" id="ArialMT-46" transform="scale(0.015625)"/>
       <path d="M 2588 409 
Q 2275 144 1986 34 
Q 1697 -75 1366 -75 
Q 819 -75 525 192 
Q 231 459 231 875 
Q 231 1119 342 1320 
Q 453 1522 633 1644 
Q 813 1766 1038 1828 
Q 1203 1872 1538 1913 
Q 2219 1994 2541 2106 
Q 2544 2222 2544 2253 
Q 2544 2597 2384 2738 
Q 2169 2928 1744 2928 
Q 1347 2928 1158 2789 
Q 969 2650 878 2297 
L 328 2372 
Q 403 2725 575 2942 
Q 747 3159 1072 3276 
Q 1397 3394 1825 3394 
Q 2250 3394 2515 3294 
Q 2781 3194 2906 3042 
Q 3031 2891 3081 2659 
Q 3109 2516 3109 2141 
L 3109 1391 
Q 3109 606 3145 398 
Q 3181 191 3288 0 
L 2700 0 
Q 2613 175 2588 409 
z
M 2541 1666 
Q 2234 1541 1622 1453 
Q 1275 1403 1131 1340 
Q 988 1278 909 1158 
Q 831 1038 831 891 
Q 831 666 1001 516 
Q 1172 366 1500 366 
Q 1825 366 2078 508 
Q 2331 650 2450 897 
Q 2541 1088 2541 1459 
L 2541 1666 
z
" id="ArialMT-61" transform="scale(0.015625)"/>
       <path d="M 409 0 
L 409 4581 
L 972 4581 
L 972 0 
L 409 0 
z
" id="ArialMT-6c" transform="scale(0.015625)"/>
       <path d="M 197 991 
L 753 1078 
Q 800 744 1014 566 
Q 1228 388 1613 388 
Q 2000 388 2187 545 
Q 2375 703 2375 916 
Q 2375 1106 2209 1216 
Q 2094 1291 1634 1406 
Q 1016 1563 777 1677 
Q 538 1791 414 1992 
Q 291 2194 291 2438 
Q 291 2659 392 2848 
Q 494 3038 669 3163 
Q 800 3259 1026 3326 
Q 1253 3394 1513 3394 
Q 1903 3394 2198 3281 
Q 2494 3169 2634 2976 
Q 2775 2784 2828 2463 
L 2278 2388 
Q 2241 2644 2061 2787 
Q 1881 2931 1553 2931 
Q 1166 2931 1000 2803 
Q 834 2675 834 2503 
Q 834 2394 903 2306 
Q 972 2216 1119 2156 
Q 1203 2125 1616 2013 
Q 2213 1853 2448 1751 
Q 2684 1650 2818 1456 
Q 2953 1263 2953 975 
Q 2953 694 2789 445 
Q 2625 197 2315 61 
Q 2006 -75 1616 -75 
Q 969 -75 630 194 
Q 291 463 197 991 
z
" id="ArialMT-73" transform="scale(0.015625)"/>
       <path d="M 2694 1069 
L 3275 997 
Q 3138 488 2766 206 
Q 2394 -75 1816 -75 
Q 1088 -75 661 373 
Q 234 822 234 1631 
Q 234 2469 665 2931 
Q 1097 3394 1784 3394 
Q 2450 3394 2872 2941 
Q 3294 2488 3294 1666 
Q 3294 1616 3291 1516 
L 816 1516 
Q 847 969 1125 678 
Q 1403 388 1819 388 
Q 2128 388 2347 550 
Q 2566 713 2694 1069 
z
M 847 1978 
L 2700 1978 
Q 2663 2397 2488 2606 
Q 2219 2931 1791 2931 
Q 1403 2931 1139 2672 
Q 875 2413 847 1978 
z
" id="ArialMT-65" transform="scale(0.015625)"/>
       <path id="ArialMT-20" transform="scale(0.015625)"/>
       <path d="M 494 0 
L 494 4581 
L 2222 4581 
Q 2678 4581 2919 4538 
Q 3256 4481 3484 4323 
Q 3713 4166 3852 3881 
Q 3991 3597 3991 3256 
Q 3991 2672 3619 2267 
Q 3247 1863 2275 1863 
L 1100 1863 
L 1100 0 
L 494 0 
z
M 1100 2403 
L 2284 2403 
Q 2872 2403 3119 2622 
Q 3366 2841 3366 3238 
Q 3366 3525 3220 3729 
Q 3075 3934 2838 4000 
Q 2684 4041 2272 4041 
L 1100 4041 
L 1100 2403 
z
" id="ArialMT-50" transform="scale(0.015625)"/>
       <path d="M 213 1659 
Q 213 2581 725 3025 
Q 1153 3394 1769 3394 
Q 2453 3394 2887 2945 
Q 3322 2497 3322 1706 
Q 3322 1066 3130 698 
Q 2938 331 2570 128 
Q 2203 -75 1769 -75 
Q 1072 -75 642 372 
Q 213 819 213 1659 
z
M 791 1659 
Q 791 1022 1069 705 
Q 1347 388 1769 388 
Q 2188 388 2466 706 
Q 2744 1025 2744 1678 
Q 2744 2294 2464 2611 
Q 2184 2928 1769 2928 
Q 1347 2928 1069 2612 
Q 791 2297 791 1659 
z
" id="ArialMT-6f" transform="scale(0.015625)"/>
       <path d="M 425 3934 
L 425 4581 
L 988 4581 
L 988 3934 
L 425 3934 
z
M 425 0 
L 425 3319 
L 988 3319 
L 988 0 
L 425 0 
z
" id="ArialMT-69" transform="scale(0.015625)"/>
       <path d="M 1650 503 
L 1731 6 
Q 1494 -44 1306 -44 
Q 1000 -44 831 53 
Q 663 150 594 308 
Q 525 466 525 972 
L 525 2881 
L 113 2881 
L 113 3319 
L 525 3319 
L 525 4141 
L 1084 4478 
L 1084 3319 
L 1650 3319 
L 1650 2881 
L 1084 2881 
L 1084 941 
Q 1084 700 1114 631 
Q 1144 563 1211 522 
Q 1278 481 1403 481 
Q 1497 481 1650 503 
z
" id="ArialMT-74" transform="scale(0.015625)"/>
       <path d="M 1344 0 
L 81 3319 
L 675 3319 
L 1388 1331 
Q 1503 1009 1600 663 
Q 1675 925 1809 1294 
L 2547 3319 
L 3125 3319 
L 1869 0 
L 1344 0 
z
" id="ArialMT-76" transform="scale(0.015625)"/>
       <path d="M 503 0 
L 503 4581 
L 2534 4581 
Q 3147 4581 3465 4457 
Q 3784 4334 3975 4021 
Q 4166 3709 4166 3331 
Q 4166 2844 3850 2509 
Q 3534 2175 2875 2084 
Q 3116 1969 3241 1856 
Q 3506 1613 3744 1247 
L 4541 0 
L 3778 0 
L 3172 953 
Q 2906 1366 2734 1584 
Q 2563 1803 2427 1890 
Q 2291 1978 2150 2013 
Q 2047 2034 1813 2034 
L 1109 2034 
L 1109 0 
L 503 0 
z
M 1109 2559 
L 2413 2559 
Q 2828 2559 3062 2645 
Q 3297 2731 3419 2920 
Q 3541 3109 3541 3331 
Q 3541 3656 3305 3865 
Q 3069 4075 2559 4075 
L 1109 4075 
L 1109 2559 
z
" id="ArialMT-52" transform="scale(0.015625)"/>
      </defs>
      <use xlink:href="#ArialMT-46"/>
      <use x="61.083984" xlink:href="#ArialMT-61"/>
      <use x="116.699219" xlink:href="#ArialMT-6c"/>
      <use x="138.916016" xlink:href="#ArialMT-73"/>
      <use x="188.916016" xlink:href="#ArialMT-65"/>
      <use x="244.53125" xlink:href="#ArialMT-20"/>
      <use x="272.314453" xlink:href="#ArialMT-50"/>
      <use x="339.013672" xlink:href="#ArialMT-6f"/>
      <use x="394.628906" xlink:href="#ArialMT-73"/>
      <use x="444.628906" xlink:href="#ArialMT-69"/>
      <use x="466.845703" xlink:href="#ArialMT-74"/>
      <use x="494.628906" xlink:href="#ArialMT-69"/>
      <use x="516.845703" xlink:href="#ArialMT-76"/>
      <use x="566.845703" xlink:href="#ArialMT-65"/>
      <use x="622.460938" xlink:href="#ArialMT-20"/>
      <use x="650.244141" xlink:href="#ArialMT-52"/>
      <use x="722.460938" xlink:href="#ArialMT-61"/>
      <use x="778.076172" xlink:href="#ArialMT-74"/>
      <use x="805.859375" xlink:href="#ArialMT-65"/>
     </g>
    </g>
   </g>
   <g id="matplotlib.axis_2">
    <g id="ytick_1">
     <g id="line2d_7">
      <path clip-path="url(#pd69824afae)" d="M 126 640.8 
L 907.2 640.8 
" style="fill:none;stroke:#ffffff;stroke-linecap:round;"/>
     </g>
     <g id="text_8">
      <!-- 0.0 -->
      <g style="fill:#262626;" transform="translate(101.21 644.736797)scale(0.11 -0.11)">
       <use xlink:href="#ArialMT-30"/>
       <use x="55.615234" xlink:href="#ArialMT-2e"/>
       <use x="83.398438" xlink:href="#ArialMT-30"/>
      </g>
     </g>
    </g>
    <g id="ytick_2">
     <g id="line2d_8">
      <path clip-path="url(#pd69824afae)" d="M 126 529.92 
L 907.2 529.92 
" style="fill:none;stroke:#ffffff;stroke-linecap:round;"/>
     </g>
     <g id="text_9">
      <!-- 0.2 -->
      <g style="fill:#262626;" transform="translate(101.21 533.856797)scale(0.11 -0.11)">
       <use xlink:href="#ArialMT-30"/>
       <use x="55.615234" xlink:href="#ArialMT-2e"/>
       <use x="83.398438" xlink:href="#ArialMT-32"/>
      </g>
     </g>
    </g>
    <g id="ytick_3">
     <g id="line2d_9">
      <path clip-path="url(#pd69824afae)" d="M 126 419.04 
L 907.2 419.04 
" style="fill:none;stroke:#ffffff;stroke-linecap:round;"/>
     </g>
     <g id="text_10">
      <!-- 0.4 -->
      <g style="fill:#262626;" transform="translate(101.21 422.976797)scale(0.11 -0.11)">
       <use xlink:href="#ArialMT-30"/>
       <use x="55.615234" xlink:href="#ArialMT-2e"/>
       <use x="83.398438" xlink:href="#ArialMT-34"/>
      </g>
     </g>
    </g>
    <g id="ytick_4">
     <g id="line2d_10">
      <path clip-path="url(#pd69824afae)" d="M 126 308.16 
L 907.2 308.16 
" style="fill:none;stroke:#ffffff;stroke-linecap:round;"/>
     </g>
     <g id="text_11">
      <!-- 0.6 -->
      <g style="fill:#262626;" transform="translate(101.21 312.096797)scale(0.11 -0.11)">
       <use xlink:href="#ArialMT-30"/>
       <use x="55.615234" xlink:href="#ArialMT-2e"/>
       <use x="83.398438" xlink:href="#ArialMT-36"/>
      </g>
     </g>
    </g>
    <g id="ytick_5">
     <g id="line2d_11">
      <path clip-path="url(#pd69824afae)" d="M 126 197.28 
L 907.2 197.28 
" style="fill:none;stroke:#ffffff;stroke-linecap:round;"/>
     </g>
     <g id="text_12">
      <!-- 0.8 -->
      <g style="fill:#262626;" transform="translate(101.21 201.216797)scale(0.11 -0.11)">
       <use xlink:href="#ArialMT-30"/>
       <use x="55.615234" xlink:href="#ArialMT-2e"/>
       <use x="83.398438" xlink:href="#ArialMT-38"/>
      </g>
     </g>
    </g>
    <g id="ytick_6">
     <g id="line2d_12">
      <path clip-path="url(#pd69824afae)" d="M 126 86.4 
L 907.2 86.4 
" style="fill:none;stroke:#ffffff;stroke-linecap:round;"/>
     </g>
     <g id="text_13">
      <!-- 1.0 -->
      <g style="fill:#262626;" transform="translate(101.21 90.336797)scale(0.11 -0.11)">
       <use xlink:href="#ArialMT-31"/>
       <use x="55.615234" xlink:href="#ArialMT-2e"/>
       <use x="83.398438" xlink:href="#ArialMT-30"/>
      </g>
     </g>
    </g>
    <g id="text_14">
     <!-- True Positive Rate -->
     <g style="fill:#262626;" transform="translate(94.825 412.725937)rotate(-90)scale(0.12 -0.12)">
      <defs>
       <path d="M 1659 0 
L 1659 4041 
L 150 4041 
L 150 4581 
L 3781 4581 
L 3781 4041 
L 2266 4041 
L 2266 0 
L 1659 0 
z
" id="ArialMT-54" transform="scale(0.015625)"/>
       <path d="M 416 0 
L 416 3319 
L 922 3319 
L 922 2816 
Q 1116 3169 1280 3281 
Q 1444 3394 1641 3394 
Q 1925 3394 2219 3213 
L 2025 2691 
Q 1819 2813 1613 2813 
Q 1428 2813 1281 2702 
Q 1134 2591 1072 2394 
Q 978 2094 978 1738 
L 978 0 
L 416 0 
z
" id="ArialMT-72" transform="scale(0.015625)"/>
       <path d="M 2597 0 
L 2597 488 
Q 2209 -75 1544 -75 
Q 1250 -75 995 37 
Q 741 150 617 320 
Q 494 491 444 738 
Q 409 903 409 1263 
L 409 3319 
L 972 3319 
L 972 1478 
Q 972 1038 1006 884 
Q 1059 663 1231 536 
Q 1403 409 1656 409 
Q 1909 409 2131 539 
Q 2353 669 2445 892 
Q 2538 1116 2538 1541 
L 2538 3319 
L 3100 3319 
L 3100 0 
L 2597 0 
z
" id="ArialMT-75" transform="scale(0.015625)"/>
      </defs>
      <use xlink:href="#ArialMT-54"/>
      <use x="57.333984" xlink:href="#ArialMT-72"/>
      <use x="90.634766" xlink:href="#ArialMT-75"/>
      <use x="146.25" xlink:href="#ArialMT-65"/>
      <use x="201.865234" xlink:href="#ArialMT-20"/>
      <use x="229.648438" xlink:href="#ArialMT-50"/>
      <use x="296.347656" xlink:href="#ArialMT-6f"/>
      <use x="351.962891" xlink:href="#ArialMT-73"/>
      <use x="401.962891" xlink:href="#ArialMT-69"/>
      <use x="424.179688" xlink:href="#ArialMT-74"/>
      <use x="451.962891" xlink:href="#ArialMT-69"/>
      <use x="474.179688" xlink:href="#ArialMT-76"/>
      <use x="524.179688" xlink:href="#ArialMT-65"/>
      <use x="579.794922" xlink:href="#ArialMT-20"/>
      <use x="607.578125" xlink:href="#ArialMT-52"/>
      <use x="679.794922" xlink:href="#ArialMT-61"/>
      <use x="735.410156" xlink:href="#ArialMT-74"/>
      <use x="763.193359" xlink:href="#ArialMT-65"/>
     </g>
    </g>
   </g>
   <g id="line2d_13">
    <path clip-path="url(#pd69824afae)" d="M 126 640.8 
L 126 593.889231 
L 132.51 593.889231 
L 132.51 566.169231 
L 139.02 566.169231 
L 139.02 496.869231 
L 145.53 496.869231 
L 145.53 469.149231 
L 152.04 469.149231 
L 152.04 427.569231 
L 158.55 427.569231 
L 158.55 412.643077 
L 165.06 412.643077 
L 165.06 404.113846 
L 171.57 404.113846 
L 171.57 403.047692 
L 178.08 403.047692 
L 178.08 397.716923 
L 184.59 397.716923 
L 184.59 379.592308 
L 191.1 379.592308 
L 191.1 352.938462 
L 197.61 352.938462 
L 197.61 349.74 
L 204.12 349.74 
L 204.12 332.681538 
L 210.63 332.681538 
L 210.63 320.953846 
L 217.14 320.953846 
L 217.14 311.358462 
L 223.65 311.358462 
L 223.65 308.16 
L 230.16 308.16 
L 230.16 298.564615 
L 236.67 298.564615 
L 236.67 292.167692 
L 243.18 292.167692 
L 243.18 271.910769 
L 249.69 271.910769 
L 249.69 270.844615 
L 256.2 270.844615 
L 256.2 269.778462 
L 275.73 269.778462 
L 275.73 263.381538 
L 282.24 263.381538 
L 282.24 250.587692 
L 288.75 250.587692 
L 288.75 248.455385 
L 301.77 248.455385 
L 301.77 242.058462 
L 327.81 242.058462 
L 327.81 240.992308 
L 334.32 240.992308 
L 334.32 235.661538 
L 353.85 235.661538 
L 353.85 234.595385 
L 360.36 234.595385 
L 360.36 225 
L 366.87 225 
L 366.87 213.272308 
L 373.38 213.272308 
L 373.38 212.206154 
L 386.4 212.206154 
L 386.4 209.007692 
L 399.42 209.007692 
L 399.42 206.875385 
L 405.93 206.875385 
L 405.93 203.676923 
L 412.44 203.676923 
L 412.44 199.412308 
L 425.46 199.412308 
L 425.46 190.883077 
L 431.97 190.883077 
L 431.97 189.816923 
L 438.48 189.816923 
L 438.48 187.684615 
L 444.99 187.684615 
L 444.99 179.155385 
L 451.5 179.155385 
L 451.5 175.956923 
L 471.03 175.956923 
L 471.03 172.758462 
L 484.05 172.758462 
L 484.05 170.626154 
L 490.56 170.626154 
L 490.56 169.56 
L 503.58 169.56 
L 503.58 161.030769 
L 510.09 161.030769 
L 510.09 158.898462 
L 516.6 158.898462 
L 516.6 157.832308 
L 523.11 157.832308 
L 523.11 155.7 
L 529.62 155.7 
L 529.62 154.633846 
L 536.13 154.633846 
L 536.13 149.303077 
L 555.66 149.303077 
L 555.66 142.906154 
L 562.17 142.906154 
L 562.17 138.641538 
L 568.68 138.641538 
L 568.68 132.244615 
L 575.19 132.244615 
L 575.19 125.847692 
L 588.21 125.847692 
L 588.21 124.781538 
L 601.23 124.781538 
L 601.23 121.583077 
L 607.74 121.583077 
L 607.74 120.516923 
L 614.25 120.516923 
L 614.25 119.450769 
L 620.76 119.450769 
L 620.76 115.186154 
L 627.27 115.186154 
L 627.27 113.053846 
L 646.8 113.053846 
L 646.8 111.987692 
L 653.31 111.987692 
L 653.31 110.921538 
L 666.33 110.921538 
L 666.33 108.789231 
L 685.86 108.789231 
L 685.86 104.524615 
L 724.92 104.524615 
L 724.92 103.458462 
L 731.43 103.458462 
L 731.43 102.392308 
L 744.45 102.392308 
L 744.45 101.326154 
L 757.47 101.326154 
L 757.47 100.26 
L 763.98 100.26 
L 763.98 99.193846 
L 803.04 99.193846 
L 803.04 97.061538 
L 809.55 97.061538 
L 809.55 95.995385 
L 822.57 95.995385 
L 822.57 92.796923 
L 835.59 92.796923 
L 835.59 90.664615 
L 842.1 90.664615 
L 842.1 89.598462 
L 848.61 89.598462 
L 848.61 88.532308 
L 881.16 88.532308 
L 881.16 86.4 
L 907.2 86.4 
L 907.2 86.4 
" style="fill:none;stroke:#4c72b0;stroke-linecap:round;stroke-width:1.5;"/>
   </g>
   <g id="line2d_14">
    <path clip-path="url(#pd69824afae)" d="M 126 640.8 
L 126 626.584615 
L 128.381707 626.584615 
L 128.381707 619.476923 
L 130.763415 619.476923 
L 130.763415 617.7 
L 133.145122 617.7 
L 133.145122 614.146154 
L 135.526829 614.146154 
L 135.526829 608.815385 
L 140.290244 608.815385 
L 140.290244 592.823077 
L 142.671951 592.823077 
L 142.671951 571.5 
L 145.053659 571.5 
L 145.053659 566.169231 
L 147.435366 566.169231 
L 147.435366 560.838462 
L 149.817073 560.838462 
L 149.817073 519.969231 
L 152.19878 519.969231 
L 152.19878 518.192308 
L 154.580488 518.192308 
L 154.580488 512.861538 
L 156.962195 512.861538 
L 156.962195 495.092308 
L 159.343902 495.092308 
L 159.343902 491.538462 
L 161.72561 491.538462 
L 161.72561 487.984615 
L 164.107317 487.984615 
L 164.107317 470.215385 
L 168.870732 470.215385 
L 168.870732 466.661538 
L 171.252439 466.661538 
L 171.252439 450.669231 
L 173.634146 450.669231 
L 173.634146 445.338462 
L 178.397561 445.338462 
L 178.397561 443.561538 
L 183.160976 443.561538 
L 183.160976 440.007692 
L 185.542683 440.007692 
L 185.542683 436.453846 
L 192.687805 436.453846 
L 192.687805 429.346154 
L 195.069512 429.346154 
L 195.069512 425.792308 
L 197.45122 425.792308 
L 197.45122 424.015385 
L 202.214634 424.015385 
L 202.214634 415.130769 
L 206.978049 415.130769 
L 206.978049 413.353846 
L 209.359756 413.353846 
L 209.359756 406.246154 
L 214.123171 406.246154 
L 214.123171 397.361538 
L 216.504878 397.361538 
L 216.504878 395.584615 
L 218.886585 395.584615 
L 218.886585 393.807692 
L 221.268293 393.807692 
L 221.268293 392.030769 
L 223.65 392.030769 
L 223.65 390.253846 
L 226.031707 390.253846 
L 226.031707 379.592308 
L 228.413415 379.592308 
L 228.413415 377.815385 
L 230.795122 377.815385 
L 230.795122 367.153846 
L 233.176829 367.153846 
L 233.176829 365.376923 
L 235.558537 365.376923 
L 235.558537 363.6 
L 237.940244 363.6 
L 237.940244 360.046154 
L 240.321951 360.046154 
L 240.321951 356.492308 
L 242.703659 356.492308 
L 242.703659 354.715385 
L 249.84878 354.715385 
L 249.84878 352.938462 
L 252.230488 352.938462 
L 252.230488 349.384615 
L 254.612195 349.384615 
L 254.612195 342.276923 
L 256.993902 342.276923 
L 256.993902 331.615385 
L 259.37561 331.615385 
L 259.37561 328.061538 
L 261.757317 328.061538 
L 261.757317 326.284615 
L 264.139024 326.284615 
L 264.139024 324.507692 
L 268.902439 324.507692 
L 268.902439 320.953846 
L 280.810976 320.953846 
L 280.810976 315.623077 
L 283.192683 315.623077 
L 283.192683 313.846154 
L 287.956098 313.846154 
L 287.956098 308.515385 
L 290.337805 308.515385 
L 290.337805 304.961538 
L 292.719512 304.961538 
L 292.719512 301.407692 
L 295.10122 301.407692 
L 295.10122 299.630769 
L 299.864634 299.630769 
L 299.864634 297.853846 
L 309.391463 297.853846 
L 309.391463 288.969231 
L 311.773171 288.969231 
L 311.773171 287.192308 
L 316.536585 287.192308 
L 316.536585 285.415385 
L 318.918293 285.415385 
L 318.918293 278.307692 
L 321.3 278.307692 
L 321.3 269.423077 
L 323.681707 269.423077 
L 323.681707 267.646154 
L 328.445122 267.646154 
L 328.445122 265.869231 
L 345.117073 265.869231 
L 345.117073 264.092308 
L 349.880488 264.092308 
L 349.880488 262.315385 
L 354.643902 262.315385 
L 354.643902 258.761538 
L 361.789024 258.761538 
L 361.789024 255.207692 
L 373.697561 255.207692 
L 373.697561 253.430769 
L 380.842683 253.430769 
L 380.842683 251.653846 
L 383.22439 251.653846 
L 383.22439 249.876923 
L 385.606098 249.876923 
L 385.606098 244.546154 
L 392.75122 244.546154 
L 392.75122 240.992308 
L 397.514634 240.992308 
L 397.514634 237.438462 
L 402.278049 237.438462 
L 402.278049 233.884615 
L 407.041463 233.884615 
L 407.041463 230.330769 
L 409.423171 230.330769 
L 409.423171 225 
L 411.804878 225 
L 411.804878 221.446154 
L 414.186585 221.446154 
L 414.186585 219.669231 
L 416.568293 219.669231 
L 416.568293 216.115385 
L 423.713415 216.115385 
L 423.713415 212.561538 
L 426.095122 212.561538 
L 426.095122 210.784615 
L 430.858537 210.784615 
L 430.858537 207.230769 
L 433.240244 207.230769 
L 433.240244 203.676923 
L 438.003659 203.676923 
L 438.003659 198.346154 
L 440.385366 198.346154 
L 440.385366 191.238462 
L 442.767073 191.238462 
L 442.767073 187.684615 
L 449.912195 187.684615 
L 449.912195 180.576923 
L 457.057317 180.576923 
L 457.057317 178.8 
L 459.439024 178.8 
L 459.439024 177.023077 
L 461.820732 177.023077 
L 461.820732 173.469231 
L 464.202439 173.469231 
L 464.202439 171.692308 
L 466.584146 171.692308 
L 466.584146 169.915385 
L 468.965854 169.915385 
L 468.965854 168.138462 
L 480.87439 168.138462 
L 480.87439 166.361538 
L 483.256098 166.361538 
L 483.256098 164.584615 
L 485.637805 164.584615 
L 485.637805 162.807692 
L 488.019512 162.807692 
L 488.019512 161.030769 
L 497.546341 161.030769 
L 497.546341 159.253846 
L 499.928049 159.253846 
L 499.928049 155.7 
L 502.309756 155.7 
L 502.309756 153.923077 
L 504.691463 153.923077 
L 504.691463 152.146154 
L 511.836585 152.146154 
L 511.836585 148.592308 
L 516.6 148.592308 
L 516.6 146.815385 
L 540.417073 146.815385 
L 540.417073 145.038462 
L 545.180488 145.038462 
L 545.180488 143.261538 
L 547.562195 143.261538 
L 547.562195 141.484615 
L 557.089024 141.484615 
L 557.089024 139.707692 
L 564.234146 139.707692 
L 564.234146 137.930769 
L 566.615854 137.930769 
L 566.615854 136.153846 
L 571.379268 136.153846 
L 571.379268 132.6 
L 590.432927 132.6 
L 590.432927 129.046154 
L 602.341463 129.046154 
L 602.341463 123.715385 
L 614.25 123.715385 
L 614.25 121.938462 
L 626.158537 121.938462 
L 626.158537 120.161538 
L 638.067073 120.161538 
L 638.067073 118.384615 
L 654.739024 118.384615 
L 654.739024 116.607692 
L 659.502439 116.607692 
L 659.502439 111.276923 
L 664.265854 111.276923 
L 664.265854 109.5 
L 666.647561 109.5 
L 666.647561 105.946154 
L 685.70122 105.946154 
L 685.70122 102.392308 
L 702.373171 102.392308 
L 702.373171 100.615385 
L 711.9 100.615385 
L 711.9 98.838462 
L 719.045122 98.838462 
L 719.045122 97.061538 
L 728.571951 97.061538 
L 728.571951 95.284615 
L 783.35122 95.284615 
L 783.35122 93.507692 
L 811.931707 93.507692 
L 811.931707 91.730769 
L 816.695122 91.730769 
L 816.695122 89.953846 
L 845.27561 89.953846 
L 845.27561 88.176923 
L 895.291463 88.176923 
L 895.291463 86.4 
L 907.2 86.4 
L 907.2 86.4 
" style="fill:none;stroke:#dd8452;stroke-linecap:round;stroke-width:1.5;"/>
   </g>
   <g id="line2d_15">
    <path clip-path="url(#pd69824afae)" d="M 126 640.8 
L 907.2 86.4 
" style="fill:none;stroke:#1a1a1a;stroke-dasharray:5.55,2.4;stroke-dashoffset:0;stroke-width:1.5;"/>
   </g>
   <g id="patch_3">
    <path d="M 126 640.8 
L 126 86.4 
" style="fill:none;stroke:#ffffff;stroke-linecap:square;stroke-linejoin:miter;stroke-width:1.25;"/>
   </g>
   <g id="patch_4">
    <path d="M 907.2 640.8 
L 907.2 86.4 
" style="fill:none;stroke:#ffffff;stroke-linecap:square;stroke-linejoin:miter;stroke-width:1.25;"/>
   </g>
   <g id="patch_5">
    <path d="M 126 640.8 
L 907.2 640.8 
" style="fill:none;stroke:#ffffff;stroke-linecap:square;stroke-linejoin:miter;stroke-width:1.25;"/>
   </g>
   <g id="patch_6">
    <path d="M 126 86.4 
L 907.2 86.4 
" style="fill:none;stroke:#ffffff;stroke-linecap:square;stroke-linejoin:miter;stroke-width:1.25;"/>
   </g>
   <g id="text_15">
    <!-- ROC curve : KL_0 = 0.182 &amp; KL_1 = 0.067 -->
    <g style="fill:#262626;" transform="translate(402.86625 80.4)scale(0.12 -0.12)">
     <defs>
      <path d="M 309 2231 
Q 309 3372 921 4017 
Q 1534 4663 2503 4663 
Q 3138 4663 3647 4359 
Q 4156 4056 4423 3514 
Q 4691 2972 4691 2284 
Q 4691 1588 4409 1038 
Q 4128 488 3612 205 
Q 3097 -78 2500 -78 
Q 1853 -78 1343 234 
Q 834 547 571 1087 
Q 309 1628 309 2231 
z
M 934 2222 
Q 934 1394 1379 917 
Q 1825 441 2497 441 
Q 3181 441 3623 922 
Q 4066 1403 4066 2288 
Q 4066 2847 3877 3264 
Q 3688 3681 3323 3911 
Q 2959 4141 2506 4141 
Q 1863 4141 1398 3698 
Q 934 3256 934 2222 
z
" id="ArialMT-4f" transform="scale(0.015625)"/>
      <path d="M 3763 1606 
L 4369 1453 
Q 4178 706 3683 314 
Q 3188 -78 2472 -78 
Q 1731 -78 1267 223 
Q 803 525 561 1097 
Q 319 1669 319 2325 
Q 319 3041 592 3573 
Q 866 4106 1370 4382 
Q 1875 4659 2481 4659 
Q 3169 4659 3637 4309 
Q 4106 3959 4291 3325 
L 3694 3184 
Q 3534 3684 3231 3912 
Q 2928 4141 2469 4141 
Q 1941 4141 1586 3887 
Q 1231 3634 1087 3207 
Q 944 2781 944 2328 
Q 944 1744 1114 1308 
Q 1284 872 1643 656 
Q 2003 441 2422 441 
Q 2931 441 3284 734 
Q 3638 1028 3763 1606 
z
" id="ArialMT-43" transform="scale(0.015625)"/>
      <path d="M 2588 1216 
L 3141 1144 
Q 3050 572 2676 248 
Q 2303 -75 1759 -75 
Q 1078 -75 664 370 
Q 250 816 250 1647 
Q 250 2184 428 2587 
Q 606 2991 970 3192 
Q 1334 3394 1763 3394 
Q 2303 3394 2647 3120 
Q 2991 2847 3088 2344 
L 2541 2259 
Q 2463 2594 2264 2762 
Q 2066 2931 1784 2931 
Q 1359 2931 1093 2626 
Q 828 2322 828 1663 
Q 828 994 1084 691 
Q 1341 388 1753 388 
Q 2084 388 2306 591 
Q 2528 794 2588 1216 
z
" id="ArialMT-63" transform="scale(0.015625)"/>
      <path d="M 578 2678 
L 578 3319 
L 1219 3319 
L 1219 2678 
L 578 2678 
z
M 578 0 
L 578 641 
L 1219 641 
L 1219 0 
L 578 0 
z
" id="ArialMT-3a" transform="scale(0.015625)"/>
      <path d="M 469 0 
L 469 4581 
L 1075 4581 
L 1075 2309 
L 3350 4581 
L 4172 4581 
L 2250 2725 
L 4256 0 
L 3456 0 
L 1825 2319 
L 1075 1588 
L 1075 0 
L 469 0 
z
" id="ArialMT-4b" transform="scale(0.015625)"/>
      <path d="M 469 0 
L 469 4581 
L 1075 4581 
L 1075 541 
L 3331 541 
L 3331 0 
L 469 0 
z
" id="ArialMT-4c" transform="scale(0.015625)"/>
      <path d="M -97 -1272 
L -97 -866 
L 3631 -866 
L 3631 -1272 
L -97 -1272 
z
" id="ArialMT-5f" transform="scale(0.015625)"/>
      <path d="M 3381 2694 
L 356 2694 
L 356 3219 
L 3381 3219 
L 3381 2694 
z
M 3381 1303 
L 356 1303 
L 356 1828 
L 3381 1828 
L 3381 1303 
z
" id="ArialMT-3d" transform="scale(0.015625)"/>
      <path d="M 3041 541 
Q 2763 231 2434 76 
Q 2106 -78 1725 -78 
Q 1022 -78 609 397 
Q 275 784 275 1263 
Q 275 1688 548 2030 
Q 822 2372 1366 2631 
Q 1056 2988 953 3209 
Q 850 3431 850 3638 
Q 850 4050 1173 4354 
Q 1497 4659 1988 4659 
Q 2456 4659 2754 4371 
Q 3053 4084 3053 3681 
Q 3053 3028 2188 2566 
L 3009 1519 
Q 3150 1794 3228 2156 
L 3813 2031 
Q 3663 1431 3406 1044 
Q 3722 625 4122 341 
L 3744 -106 
Q 3403 113 3041 541 
z
M 1897 2928 
Q 2263 3144 2370 3306 
Q 2478 3469 2478 3666 
Q 2478 3900 2329 4048 
Q 2181 4197 1959 4197 
Q 1731 4197 1579 4050 
Q 1428 3903 1428 3691 
Q 1428 3584 1483 3467 
Q 1538 3350 1647 3219 
L 1897 2928 
z
M 2688 984 
L 1656 2263 
Q 1200 1991 1040 1758 
Q 881 1525 881 1297 
Q 881 1019 1103 719 
Q 1325 419 1731 419 
Q 1984 419 2254 576 
Q 2525 734 2688 984 
z
" id="ArialMT-26" transform="scale(0.015625)"/>
      <path d="M 303 3981 
L 303 4522 
L 3269 4522 
L 3269 4084 
Q 2831 3619 2401 2847 
Q 1972 2075 1738 1259 
Q 1569 684 1522 0 
L 944 0 
Q 953 541 1156 1306 
Q 1359 2072 1739 2783 
Q 2119 3494 2547 3981 
L 303 3981 
z
" id="ArialMT-37" transform="scale(0.015625)"/>
     </defs>
     <use xlink:href="#ArialMT-52"/>
     <use x="72.216797" xlink:href="#ArialMT-4f"/>
     <use x="150" xlink:href="#ArialMT-43"/>
     <use x="222.216797" xlink:href="#ArialMT-20"/>
     <use x="250" xlink:href="#ArialMT-63"/>
     <use x="300" xlink:href="#ArialMT-75"/>
     <use x="355.615234" xlink:href="#ArialMT-72"/>
     <use x="388.916016" xlink:href="#ArialMT-76"/>
     <use x="438.916016" xlink:href="#ArialMT-65"/>
     <use x="494.53125" xlink:href="#ArialMT-20"/>
     <use x="522.314453" xlink:href="#ArialMT-3a"/>
     <use x="550.097656" xlink:href="#ArialMT-20"/>
     <use x="577.880859" xlink:href="#ArialMT-4b"/>
     <use x="644.580078" xlink:href="#ArialMT-4c"/>
     <use x="700.195312" xlink:href="#ArialMT-5f"/>
     <use x="755.810547" xlink:href="#ArialMT-30"/>
     <use x="811.425781" xlink:href="#ArialMT-20"/>
     <use x="839.208984" xlink:href="#ArialMT-3d"/>
     <use x="897.607422" xlink:href="#ArialMT-20"/>
     <use x="925.390625" xlink:href="#ArialMT-30"/>
     <use x="981.005859" xlink:href="#ArialMT-2e"/>
     <use x="1008.789062" xlink:href="#ArialMT-31"/>
     <use x="1064.404297" xlink:href="#ArialMT-38"/>
     <use x="1120.019531" xlink:href="#ArialMT-32"/>
     <use x="1175.634766" xlink:href="#ArialMT-20"/>
     <use x="1203.417969" xlink:href="#ArialMT-26"/>
     <use x="1270.117188" xlink:href="#ArialMT-20"/>
     <use x="1297.900391" xlink:href="#ArialMT-4b"/>
     <use x="1364.599609" xlink:href="#ArialMT-4c"/>
     <use x="1420.214844" xlink:href="#ArialMT-5f"/>
     <use x="1475.830078" xlink:href="#ArialMT-31"/>
     <use x="1531.445312" xlink:href="#ArialMT-20"/>
     <use x="1559.228516" xlink:href="#ArialMT-3d"/>
     <use x="1617.626953" xlink:href="#ArialMT-20"/>
     <use x="1645.410156" xlink:href="#ArialMT-30"/>
     <use x="1701.025391" xlink:href="#ArialMT-2e"/>
     <use x="1728.808594" xlink:href="#ArialMT-30"/>
     <use x="1784.423828" xlink:href="#ArialMT-36"/>
     <use x="1840.039062" xlink:href="#ArialMT-37"/>
    </g>
   </g>
   <g id="legend_1">
    <g id="patch_7">
     <path d="M 133.7 126.319687 
L 282.019531 126.319687 
Q 284.219531 126.319687 284.219531 124.119687 
L 284.219531 94.1 
Q 284.219531 91.9 282.019531 91.9 
L 133.7 91.9 
Q 131.5 91.9 131.5 94.1 
L 131.5 124.119687 
Q 131.5 126.319687 133.7 126.319687 
z
" style="fill:#eaeaf2;opacity:0.8;stroke:#cccccc;stroke-linejoin:miter;"/>
    </g>
    <g id="line2d_16">
     <path d="M 135.9 100.323594 
L 157.9 100.323594 
" style="fill:none;stroke:#4c72b0;stroke-linecap:round;stroke-width:1.5;"/>
    </g>
    <g id="line2d_17"/>
    <g id="text_16">
     <!-- tt = 1 with AUC = 0.814 -->
     <g style="fill:#262626;" transform="translate(166.7 104.173594)scale(0.11 -0.11)">
      <defs>
       <path d="M 1034 0 
L 19 3319 
L 600 3319 
L 1128 1403 
L 1325 691 
Q 1338 744 1497 1375 
L 2025 3319 
L 2603 3319 
L 3100 1394 
L 3266 759 
L 3456 1400 
L 4025 3319 
L 4572 3319 
L 3534 0 
L 2950 0 
L 2422 1988 
L 2294 2553 
L 1622 0 
L 1034 0 
z
" id="ArialMT-77" transform="scale(0.015625)"/>
       <path d="M 422 0 
L 422 4581 
L 984 4581 
L 984 2938 
Q 1378 3394 1978 3394 
Q 2347 3394 2619 3248 
Q 2891 3103 3008 2847 
Q 3125 2591 3125 2103 
L 3125 0 
L 2563 0 
L 2563 2103 
Q 2563 2525 2380 2717 
Q 2197 2909 1863 2909 
Q 1613 2909 1392 2779 
Q 1172 2650 1078 2428 
Q 984 2206 984 1816 
L 984 0 
L 422 0 
z
" id="ArialMT-68" transform="scale(0.015625)"/>
       <path d="M -9 0 
L 1750 4581 
L 2403 4581 
L 4278 0 
L 3588 0 
L 3053 1388 
L 1138 1388 
L 634 0 
L -9 0 
z
M 1313 1881 
L 2866 1881 
L 2388 3150 
Q 2169 3728 2063 4100 
Q 1975 3659 1816 3225 
L 1313 1881 
z
" id="ArialMT-41" transform="scale(0.015625)"/>
       <path d="M 3500 4581 
L 4106 4581 
L 4106 1934 
Q 4106 1244 3950 837 
Q 3794 431 3386 176 
Q 2978 -78 2316 -78 
Q 1672 -78 1262 144 
Q 853 366 678 786 
Q 503 1206 503 1934 
L 503 4581 
L 1109 4581 
L 1109 1938 
Q 1109 1341 1220 1058 
Q 1331 775 1601 622 
Q 1872 469 2263 469 
Q 2931 469 3215 772 
Q 3500 1075 3500 1938 
L 3500 4581 
z
" id="ArialMT-55" transform="scale(0.015625)"/>
      </defs>
      <use xlink:href="#ArialMT-74"/>
      <use x="27.783203" xlink:href="#ArialMT-74"/>
      <use x="55.566406" xlink:href="#ArialMT-20"/>
      <use x="83.349609" xlink:href="#ArialMT-3d"/>
      <use x="141.748047" xlink:href="#ArialMT-20"/>
      <use x="169.53125" xlink:href="#ArialMT-31"/>
      <use x="225.146484" xlink:href="#ArialMT-20"/>
      <use x="252.929688" xlink:href="#ArialMT-77"/>
      <use x="325.146484" xlink:href="#ArialMT-69"/>
      <use x="347.363281" xlink:href="#ArialMT-74"/>
      <use x="375.146484" xlink:href="#ArialMT-68"/>
      <use x="430.761719" xlink:href="#ArialMT-20"/>
      <use x="453.044922" xlink:href="#ArialMT-41"/>
      <use x="519.744141" xlink:href="#ArialMT-55"/>
      <use x="591.960938" xlink:href="#ArialMT-43"/>
      <use x="664.177734" xlink:href="#ArialMT-20"/>
      <use x="691.960938" xlink:href="#ArialMT-3d"/>
      <use x="750.359375" xlink:href="#ArialMT-20"/>
      <use x="778.142578" xlink:href="#ArialMT-30"/>
      <use x="833.757812" xlink:href="#ArialMT-2e"/>
      <use x="861.541016" xlink:href="#ArialMT-38"/>
      <use x="917.15625" xlink:href="#ArialMT-31"/>
      <use x="972.771484" xlink:href="#ArialMT-34"/>
     </g>
    </g>
    <g id="line2d_18">
     <path d="M 135.9 115.883437 
L 157.9 115.883437 
" style="fill:none;stroke:#dd8452;stroke-linecap:round;stroke-width:1.5;"/>
    </g>
    <g id="line2d_19"/>
    <g id="text_17">
     <!-- tt = 0 with AUC = 0.78 -->
     <g style="fill:#262626;" transform="translate(166.7 119.733437)scale(0.11 -0.11)">
      <use xlink:href="#ArialMT-74"/>
      <use x="27.783203" xlink:href="#ArialMT-74"/>
      <use x="55.566406" xlink:href="#ArialMT-20"/>
      <use x="83.349609" xlink:href="#ArialMT-3d"/>
      <use x="141.748047" xlink:href="#ArialMT-20"/>
      <use x="169.53125" xlink:href="#ArialMT-30"/>
      <use x="225.146484" xlink:href="#ArialMT-20"/>
      <use x="252.929688" xlink:href="#ArialMT-77"/>
      <use x="325.146484" xlink:href="#ArialMT-69"/>
      <use x="347.363281" xlink:href="#ArialMT-74"/>
      <use x="375.146484" xlink:href="#ArialMT-68"/>
      <use x="430.761719" xlink:href="#ArialMT-20"/>
      <use x="453.044922" xlink:href="#ArialMT-41"/>
      <use x="519.744141" xlink:href="#ArialMT-55"/>
      <use x="591.960938" xlink:href="#ArialMT-43"/>
      <use x="664.177734" xlink:href="#ArialMT-20"/>
      <use x="691.960938" xlink:href="#ArialMT-3d"/>
      <use x="750.359375" xlink:href="#ArialMT-20"/>
      <use x="778.142578" xlink:href="#ArialMT-30"/>
      <use x="833.757812" xlink:href="#ArialMT-2e"/>
      <use x="861.541016" xlink:href="#ArialMT-37"/>
      <use x="917.15625" xlink:href="#ArialMT-38"/>
     </g>
    </g>
   </g>
  </g>
 </g>
 <defs>
  <clipPath id="pd69824afae">
   <rect height="554.4" width="781.2" x="126" y="86.4"/>
  </clipPath>
 </defs>
</svg>
