<?xml version="1.0" encoding="utf-8" standalone="no"?>
<!DOCTYPE svg PUBLIC "-//W3C//DTD SVG 1.1//EN"
  "http://www.w3.org/Graphics/SVG/1.1/DTD/svg11.dtd">
<svg height="720pt" version="1.1" viewBox="0 0 1008 720" width="1008pt" xmlns="http://www.w3.org/2000/svg" xmlns:xlink="http://www.w3.org/1999/xlink">
 <metadata>
  <rdf:RDF xmlns:cc="http://creativecommons.org/ns#" xmlns:dc="http://purl.org/dc/elements/1.1/" xmlns:rdf="http://www.w3.org/1999/02/22-rdf-syntax-ns#">
   <cc:Work>
    <dc:type rdf:resource="http://purl.org/dc/dcmitype/StillImage"/>
    <dc:date>2022-03-17T16:53:19.289128</dc:date>
    <dc:format>image/svg+xml</dc:format>
    <dc:creator>
     <cc:Agent>
      <dc:title>Matplotlib v3.4.2, https://matplotlib.org/</dc:title>
     </cc:Agent>
    </dc:creator>
   </cc:Work>
  </rdf:RDF>
 </metadata>
 <defs>
  <style type="text/css">*{stroke-linecap:butt;stroke-linejoin:round;}</style>
 </defs>
 <g id="figure_1">
  <g id="patch_1">
   <path d="M 0 720 
L 1008 720 
L 1008 0 
L 0 0 
z
" style="fill:#ffffff;"/>
  </g>
  <g id="axes_1">
   <g id="patch_2">
    <path d="M 126 640.8 
L 907.2 640.8 
L 907.2 86.4 
L 126 86.4 
z
" style="fill:#ffffff;"/>
   </g>
   <g id="matplotlib.axis_1">
    <g id="xtick_1">
     <g id="line2d_1">
      <defs>
       <path d="M 0 0 
L 0 3.5 
" id="mfc7d3e54ed" style="stroke:#000000;stroke-width:0.8;"/>
      </defs>
      <g>
       <use style="stroke:#000000;stroke-width:0.8;" x="126" xlink:href="#mfc7d3e54ed" y="640.8"/>
      </g>
     </g>
     <g id="text_1">
      <!-- 0.0 -->
      <g transform="translate(118.048438 655.398438)scale(0.1 -0.1)">
       <defs>
        <path d="M 2034 4250 
Q 1547 4250 1301 3770 
Q 1056 3291 1056 2328 
Q 1056 1369 1301 889 
Q 1547 409 2034 409 
Q 2525 409 2770 889 
Q 3016 1369 3016 2328 
Q 3016 3291 2770 3770 
Q 2525 4250 2034 4250 
z
M 2034 4750 
Q 2819 4750 3233 4129 
Q 3647 3509 3647 2328 
Q 3647 1150 3233 529 
Q 2819 -91 2034 -91 
Q 1250 -91 836 529 
Q 422 1150 422 2328 
Q 422 3509 836 4129 
Q 1250 4750 2034 4750 
z
" id="DejaVuSans-30" transform="scale(0.015625)"/>
        <path d="M 684 794 
L 1344 794 
L 1344 0 
L 684 0 
L 684 794 
z
" id="DejaVuSans-2e" transform="scale(0.015625)"/>
       </defs>
       <use xlink:href="#DejaVuSans-30"/>
       <use x="63.623047" xlink:href="#DejaVuSans-2e"/>
       <use x="95.410156" xlink:href="#DejaVuSans-30"/>
      </g>
     </g>
    </g>
    <g id="xtick_2">
     <g id="line2d_2">
      <g>
       <use style="stroke:#000000;stroke-width:0.8;" x="282.24" xlink:href="#mfc7d3e54ed" y="640.8"/>
      </g>
     </g>
     <g id="text_2">
      <!-- 0.2 -->
      <g transform="translate(274.288437 655.398438)scale(0.1 -0.1)">
       <defs>
        <path d="M 1228 531 
L 3431 531 
L 3431 0 
L 469 0 
L 469 531 
Q 828 903 1448 1529 
Q 2069 2156 2228 2338 
Q 2531 2678 2651 2914 
Q 2772 3150 2772 3378 
Q 2772 3750 2511 3984 
Q 2250 4219 1831 4219 
Q 1534 4219 1204 4116 
Q 875 4013 500 3803 
L 500 4441 
Q 881 4594 1212 4672 
Q 1544 4750 1819 4750 
Q 2544 4750 2975 4387 
Q 3406 4025 3406 3419 
Q 3406 3131 3298 2873 
Q 3191 2616 2906 2266 
Q 2828 2175 2409 1742 
Q 1991 1309 1228 531 
z
" id="DejaVuSans-32" transform="scale(0.015625)"/>
       </defs>
       <use xlink:href="#DejaVuSans-30"/>
       <use x="63.623047" xlink:href="#DejaVuSans-2e"/>
       <use x="95.410156" xlink:href="#DejaVuSans-32"/>
      </g>
     </g>
    </g>
    <g id="xtick_3">
     <g id="line2d_3">
      <g>
       <use style="stroke:#000000;stroke-width:0.8;" x="438.48" xlink:href="#mfc7d3e54ed" y="640.8"/>
      </g>
     </g>
     <g id="text_3">
      <!-- 0.4 -->
      <g transform="translate(430.528437 655.398438)scale(0.1 -0.1)">
       <defs>
        <path d="M 2419 4116 
L 825 1625 
L 2419 1625 
L 2419 4116 
z
M 2253 4666 
L 3047 4666 
L 3047 1625 
L 3713 1625 
L 3713 1100 
L 3047 1100 
L 3047 0 
L 2419 0 
L 2419 1100 
L 313 1100 
L 313 1709 
L 2253 4666 
z
" id="DejaVuSans-34" transform="scale(0.015625)"/>
       </defs>
       <use xlink:href="#DejaVuSans-30"/>
       <use x="63.623047" xlink:href="#DejaVuSans-2e"/>
       <use x="95.410156" xlink:href="#DejaVuSans-34"/>
      </g>
     </g>
    </g>
    <g id="xtick_4">
     <g id="line2d_4">
      <g>
       <use style="stroke:#000000;stroke-width:0.8;" x="594.72" xlink:href="#mfc7d3e54ed" y="640.8"/>
      </g>
     </g>
     <g id="text_4">
      <!-- 0.6 -->
      <g transform="translate(586.768438 655.398438)scale(0.1 -0.1)">
       <defs>
        <path d="M 2113 2584 
Q 1688 2584 1439 2293 
Q 1191 2003 1191 1497 
Q 1191 994 1439 701 
Q 1688 409 2113 409 
Q 2538 409 2786 701 
Q 3034 994 3034 1497 
Q 3034 2003 2786 2293 
Q 2538 2584 2113 2584 
z
M 3366 4563 
L 3366 3988 
Q 3128 4100 2886 4159 
Q 2644 4219 2406 4219 
Q 1781 4219 1451 3797 
Q 1122 3375 1075 2522 
Q 1259 2794 1537 2939 
Q 1816 3084 2150 3084 
Q 2853 3084 3261 2657 
Q 3669 2231 3669 1497 
Q 3669 778 3244 343 
Q 2819 -91 2113 -91 
Q 1303 -91 875 529 
Q 447 1150 447 2328 
Q 447 3434 972 4092 
Q 1497 4750 2381 4750 
Q 2619 4750 2861 4703 
Q 3103 4656 3366 4563 
z
" id="DejaVuSans-36" transform="scale(0.015625)"/>
       </defs>
       <use xlink:href="#DejaVuSans-30"/>
       <use x="63.623047" xlink:href="#DejaVuSans-2e"/>
       <use x="95.410156" xlink:href="#DejaVuSans-36"/>
      </g>
     </g>
    </g>
    <g id="xtick_5">
     <g id="line2d_5">
      <g>
       <use style="stroke:#000000;stroke-width:0.8;" x="750.96" xlink:href="#mfc7d3e54ed" y="640.8"/>
      </g>
     </g>
     <g id="text_5">
      <!-- 0.8 -->
      <g transform="translate(743.008438 655.398438)scale(0.1 -0.1)">
       <defs>
        <path d="M 2034 2216 
Q 1584 2216 1326 1975 
Q 1069 1734 1069 1313 
Q 1069 891 1326 650 
Q 1584 409 2034 409 
Q 2484 409 2743 651 
Q 3003 894 3003 1313 
Q 3003 1734 2745 1975 
Q 2488 2216 2034 2216 
z
M 1403 2484 
Q 997 2584 770 2862 
Q 544 3141 544 3541 
Q 544 4100 942 4425 
Q 1341 4750 2034 4750 
Q 2731 4750 3128 4425 
Q 3525 4100 3525 3541 
Q 3525 3141 3298 2862 
Q 3072 2584 2669 2484 
Q 3125 2378 3379 2068 
Q 3634 1759 3634 1313 
Q 3634 634 3220 271 
Q 2806 -91 2034 -91 
Q 1263 -91 848 271 
Q 434 634 434 1313 
Q 434 1759 690 2068 
Q 947 2378 1403 2484 
z
M 1172 3481 
Q 1172 3119 1398 2916 
Q 1625 2713 2034 2713 
Q 2441 2713 2670 2916 
Q 2900 3119 2900 3481 
Q 2900 3844 2670 4047 
Q 2441 4250 2034 4250 
Q 1625 4250 1398 4047 
Q 1172 3844 1172 3481 
z
" id="DejaVuSans-38" transform="scale(0.015625)"/>
       </defs>
       <use xlink:href="#DejaVuSans-30"/>
       <use x="63.623047" xlink:href="#DejaVuSans-2e"/>
       <use x="95.410156" xlink:href="#DejaVuSans-38"/>
      </g>
     </g>
    </g>
    <g id="xtick_6">
     <g id="line2d_6">
      <g>
       <use style="stroke:#000000;stroke-width:0.8;" x="907.2" xlink:href="#mfc7d3e54ed" y="640.8"/>
      </g>
     </g>
     <g id="text_6">
      <!-- 1.0 -->
      <g transform="translate(899.248438 655.398438)scale(0.1 -0.1)">
       <defs>
        <path d="M 794 531 
L 1825 531 
L 1825 4091 
L 703 3866 
L 703 4441 
L 1819 4666 
L 2450 4666 
L 2450 531 
L 3481 531 
L 3481 0 
L 794 0 
L 794 531 
z
" id="DejaVuSans-31" transform="scale(0.015625)"/>
       </defs>
       <use xlink:href="#DejaVuSans-31"/>
       <use x="63.623047" xlink:href="#DejaVuSans-2e"/>
       <use x="95.410156" xlink:href="#DejaVuSans-30"/>
      </g>
     </g>
    </g>
    <g id="text_7">
     <!-- False Positive Rate -->
     <g transform="translate(470.133594 669.076563)scale(0.1 -0.1)">
      <defs>
       <path d="M 628 4666 
L 3309 4666 
L 3309 4134 
L 1259 4134 
L 1259 2759 
L 3109 2759 
L 3109 2228 
L 1259 2228 
L 1259 0 
L 628 0 
L 628 4666 
z
" id="DejaVuSans-46" transform="scale(0.015625)"/>
       <path d="M 2194 1759 
Q 1497 1759 1228 1600 
Q 959 1441 959 1056 
Q 959 750 1161 570 
Q 1363 391 1709 391 
Q 2188 391 2477 730 
Q 2766 1069 2766 1631 
L 2766 1759 
L 2194 1759 
z
M 3341 1997 
L 3341 0 
L 2766 0 
L 2766 531 
Q 2569 213 2275 61 
Q 1981 -91 1556 -91 
Q 1019 -91 701 211 
Q 384 513 384 1019 
Q 384 1609 779 1909 
Q 1175 2209 1959 2209 
L 2766 2209 
L 2766 2266 
Q 2766 2663 2505 2880 
Q 2244 3097 1772 3097 
Q 1472 3097 1187 3025 
Q 903 2953 641 2809 
L 641 3341 
Q 956 3463 1253 3523 
Q 1550 3584 1831 3584 
Q 2591 3584 2966 3190 
Q 3341 2797 3341 1997 
z
" id="DejaVuSans-61" transform="scale(0.015625)"/>
       <path d="M 603 4863 
L 1178 4863 
L 1178 0 
L 603 0 
L 603 4863 
z
" id="DejaVuSans-6c" transform="scale(0.015625)"/>
       <path d="M 2834 3397 
L 2834 2853 
Q 2591 2978 2328 3040 
Q 2066 3103 1784 3103 
Q 1356 3103 1142 2972 
Q 928 2841 928 2578 
Q 928 2378 1081 2264 
Q 1234 2150 1697 2047 
L 1894 2003 
Q 2506 1872 2764 1633 
Q 3022 1394 3022 966 
Q 3022 478 2636 193 
Q 2250 -91 1575 -91 
Q 1294 -91 989 -36 
Q 684 19 347 128 
L 347 722 
Q 666 556 975 473 
Q 1284 391 1588 391 
Q 1994 391 2212 530 
Q 2431 669 2431 922 
Q 2431 1156 2273 1281 
Q 2116 1406 1581 1522 
L 1381 1569 
Q 847 1681 609 1914 
Q 372 2147 372 2553 
Q 372 3047 722 3315 
Q 1072 3584 1716 3584 
Q 2034 3584 2315 3537 
Q 2597 3491 2834 3397 
z
" id="DejaVuSans-73" transform="scale(0.015625)"/>
       <path d="M 3597 1894 
L 3597 1613 
L 953 1613 
Q 991 1019 1311 708 
Q 1631 397 2203 397 
Q 2534 397 2845 478 
Q 3156 559 3463 722 
L 3463 178 
Q 3153 47 2828 -22 
Q 2503 -91 2169 -91 
Q 1331 -91 842 396 
Q 353 884 353 1716 
Q 353 2575 817 3079 
Q 1281 3584 2069 3584 
Q 2775 3584 3186 3129 
Q 3597 2675 3597 1894 
z
M 3022 2063 
Q 3016 2534 2758 2815 
Q 2500 3097 2075 3097 
Q 1594 3097 1305 2825 
Q 1016 2553 972 2059 
L 3022 2063 
z
" id="DejaVuSans-65" transform="scale(0.015625)"/>
       <path id="DejaVuSans-20" transform="scale(0.015625)"/>
       <path d="M 1259 4147 
L 1259 2394 
L 2053 2394 
Q 2494 2394 2734 2622 
Q 2975 2850 2975 3272 
Q 2975 3691 2734 3919 
Q 2494 4147 2053 4147 
L 1259 4147 
z
M 628 4666 
L 2053 4666 
Q 2838 4666 3239 4311 
Q 3641 3956 3641 3272 
Q 3641 2581 3239 2228 
Q 2838 1875 2053 1875 
L 1259 1875 
L 1259 0 
L 628 0 
L 628 4666 
z
" id="DejaVuSans-50" transform="scale(0.015625)"/>
       <path d="M 1959 3097 
Q 1497 3097 1228 2736 
Q 959 2375 959 1747 
Q 959 1119 1226 758 
Q 1494 397 1959 397 
Q 2419 397 2687 759 
Q 2956 1122 2956 1747 
Q 2956 2369 2687 2733 
Q 2419 3097 1959 3097 
z
M 1959 3584 
Q 2709 3584 3137 3096 
Q 3566 2609 3566 1747 
Q 3566 888 3137 398 
Q 2709 -91 1959 -91 
Q 1206 -91 779 398 
Q 353 888 353 1747 
Q 353 2609 779 3096 
Q 1206 3584 1959 3584 
z
" id="DejaVuSans-6f" transform="scale(0.015625)"/>
       <path d="M 603 3500 
L 1178 3500 
L 1178 0 
L 603 0 
L 603 3500 
z
M 603 4863 
L 1178 4863 
L 1178 4134 
L 603 4134 
L 603 4863 
z
" id="DejaVuSans-69" transform="scale(0.015625)"/>
       <path d="M 1172 4494 
L 1172 3500 
L 2356 3500 
L 2356 3053 
L 1172 3053 
L 1172 1153 
Q 1172 725 1289 603 
Q 1406 481 1766 481 
L 2356 481 
L 2356 0 
L 1766 0 
Q 1100 0 847 248 
Q 594 497 594 1153 
L 594 3053 
L 172 3053 
L 172 3500 
L 594 3500 
L 594 4494 
L 1172 4494 
z
" id="DejaVuSans-74" transform="scale(0.015625)"/>
       <path d="M 191 3500 
L 800 3500 
L 1894 563 
L 2988 3500 
L 3597 3500 
L 2284 0 
L 1503 0 
L 191 3500 
z
" id="DejaVuSans-76" transform="scale(0.015625)"/>
       <path d="M 2841 2188 
Q 3044 2119 3236 1894 
Q 3428 1669 3622 1275 
L 4263 0 
L 3584 0 
L 2988 1197 
Q 2756 1666 2539 1819 
Q 2322 1972 1947 1972 
L 1259 1972 
L 1259 0 
L 628 0 
L 628 4666 
L 2053 4666 
Q 2853 4666 3247 4331 
Q 3641 3997 3641 3322 
Q 3641 2881 3436 2590 
Q 3231 2300 2841 2188 
z
M 1259 4147 
L 1259 2491 
L 2053 2491 
Q 2509 2491 2742 2702 
Q 2975 2913 2975 3322 
Q 2975 3731 2742 3939 
Q 2509 4147 2053 4147 
L 1259 4147 
z
" id="DejaVuSans-52" transform="scale(0.015625)"/>
      </defs>
      <use xlink:href="#DejaVuSans-46"/>
      <use x="48.394531" xlink:href="#DejaVuSans-61"/>
      <use x="109.673828" xlink:href="#DejaVuSans-6c"/>
      <use x="137.457031" xlink:href="#DejaVuSans-73"/>
      <use x="189.556641" xlink:href="#DejaVuSans-65"/>
      <use x="251.080078" xlink:href="#DejaVuSans-20"/>
      <use x="282.867188" xlink:href="#DejaVuSans-50"/>
      <use x="339.544922" xlink:href="#DejaVuSans-6f"/>
      <use x="400.726562" xlink:href="#DejaVuSans-73"/>
      <use x="452.826172" xlink:href="#DejaVuSans-69"/>
      <use x="480.609375" xlink:href="#DejaVuSans-74"/>
      <use x="519.818359" xlink:href="#DejaVuSans-69"/>
      <use x="547.601562" xlink:href="#DejaVuSans-76"/>
      <use x="606.78125" xlink:href="#DejaVuSans-65"/>
      <use x="668.304688" xlink:href="#DejaVuSans-20"/>
      <use x="700.091797" xlink:href="#DejaVuSans-52"/>
      <use x="767.324219" xlink:href="#DejaVuSans-61"/>
      <use x="828.603516" xlink:href="#DejaVuSans-74"/>
      <use x="867.8125" xlink:href="#DejaVuSans-65"/>
     </g>
    </g>
   </g>
   <g id="matplotlib.axis_2">
    <g id="ytick_1">
     <g id="line2d_7">
      <defs>
       <path d="M 0 0 
L -3.5 0 
" id="m21677118e6" style="stroke:#000000;stroke-width:0.8;"/>
      </defs>
      <g>
       <use style="stroke:#000000;stroke-width:0.8;" x="126" xlink:href="#m21677118e6" y="640.8"/>
      </g>
     </g>
     <g id="text_8">
      <!-- 0.0 -->
      <g transform="translate(103.096875 644.599219)scale(0.1 -0.1)">
       <use xlink:href="#DejaVuSans-30"/>
       <use x="63.623047" xlink:href="#DejaVuSans-2e"/>
       <use x="95.410156" xlink:href="#DejaVuSans-30"/>
      </g>
     </g>
    </g>
    <g id="ytick_2">
     <g id="line2d_8">
      <g>
       <use style="stroke:#000000;stroke-width:0.8;" x="126" xlink:href="#m21677118e6" y="529.92"/>
      </g>
     </g>
     <g id="text_9">
      <!-- 0.2 -->
      <g transform="translate(103.096875 533.719219)scale(0.1 -0.1)">
       <use xlink:href="#DejaVuSans-30"/>
       <use x="63.623047" xlink:href="#DejaVuSans-2e"/>
       <use x="95.410156" xlink:href="#DejaVuSans-32"/>
      </g>
     </g>
    </g>
    <g id="ytick_3">
     <g id="line2d_9">
      <g>
       <use style="stroke:#000000;stroke-width:0.8;" x="126" xlink:href="#m21677118e6" y="419.04"/>
      </g>
     </g>
     <g id="text_10">
      <!-- 0.4 -->
      <g transform="translate(103.096875 422.839219)scale(0.1 -0.1)">
       <use xlink:href="#DejaVuSans-30"/>
       <use x="63.623047" xlink:href="#DejaVuSans-2e"/>
       <use x="95.410156" xlink:href="#DejaVuSans-34"/>
      </g>
     </g>
    </g>
    <g id="ytick_4">
     <g id="line2d_10">
      <g>
       <use style="stroke:#000000;stroke-width:0.8;" x="126" xlink:href="#m21677118e6" y="308.16"/>
      </g>
     </g>
     <g id="text_11">
      <!-- 0.6 -->
      <g transform="translate(103.096875 311.959219)scale(0.1 -0.1)">
       <use xlink:href="#DejaVuSans-30"/>
       <use x="63.623047" xlink:href="#DejaVuSans-2e"/>
       <use x="95.410156" xlink:href="#DejaVuSans-36"/>
      </g>
     </g>
    </g>
    <g id="ytick_5">
     <g id="line2d_11">
      <g>
       <use style="stroke:#000000;stroke-width:0.8;" x="126" xlink:href="#m21677118e6" y="197.28"/>
      </g>
     </g>
     <g id="text_12">
      <!-- 0.8 -->
      <g transform="translate(103.096875 201.079219)scale(0.1 -0.1)">
       <use xlink:href="#DejaVuSans-30"/>
       <use x="63.623047" xlink:href="#DejaVuSans-2e"/>
       <use x="95.410156" xlink:href="#DejaVuSans-38"/>
      </g>
     </g>
    </g>
    <g id="ytick_6">
     <g id="line2d_12">
      <g>
       <use style="stroke:#000000;stroke-width:0.8;" x="126" xlink:href="#m21677118e6" y="86.4"/>
      </g>
     </g>
     <g id="text_13">
      <!-- 1.0 -->
      <g transform="translate(103.096875 90.199219)scale(0.1 -0.1)">
       <use xlink:href="#DejaVuSans-31"/>
       <use x="63.623047" xlink:href="#DejaVuSans-2e"/>
       <use x="95.410156" xlink:href="#DejaVuSans-30"/>
      </g>
     </g>
    </g>
    <g id="text_14">
     <!-- True Positive Rate -->
     <g transform="translate(97.017187 408.129687)rotate(-90)scale(0.1 -0.1)">
      <defs>
       <path d="M -19 4666 
L 3928 4666 
L 3928 4134 
L 2272 4134 
L 2272 0 
L 1638 0 
L 1638 4134 
L -19 4134 
L -19 4666 
z
" id="DejaVuSans-54" transform="scale(0.015625)"/>
       <path d="M 2631 2963 
Q 2534 3019 2420 3045 
Q 2306 3072 2169 3072 
Q 1681 3072 1420 2755 
Q 1159 2438 1159 1844 
L 1159 0 
L 581 0 
L 581 3500 
L 1159 3500 
L 1159 2956 
Q 1341 3275 1631 3429 
Q 1922 3584 2338 3584 
Q 2397 3584 2469 3576 
Q 2541 3569 2628 3553 
L 2631 2963 
z
" id="DejaVuSans-72" transform="scale(0.015625)"/>
       <path d="M 544 1381 
L 544 3500 
L 1119 3500 
L 1119 1403 
Q 1119 906 1312 657 
Q 1506 409 1894 409 
Q 2359 409 2629 706 
Q 2900 1003 2900 1516 
L 2900 3500 
L 3475 3500 
L 3475 0 
L 2900 0 
L 2900 538 
Q 2691 219 2414 64 
Q 2138 -91 1772 -91 
Q 1169 -91 856 284 
Q 544 659 544 1381 
z
M 1991 3584 
L 1991 3584 
z
" id="DejaVuSans-75" transform="scale(0.015625)"/>
      </defs>
      <use xlink:href="#DejaVuSans-54"/>
      <use x="46.333984" xlink:href="#DejaVuSans-72"/>
      <use x="87.447266" xlink:href="#DejaVuSans-75"/>
      <use x="150.826172" xlink:href="#DejaVuSans-65"/>
      <use x="212.349609" xlink:href="#DejaVuSans-20"/>
      <use x="244.136719" xlink:href="#DejaVuSans-50"/>
      <use x="300.814453" xlink:href="#DejaVuSans-6f"/>
      <use x="361.996094" xlink:href="#DejaVuSans-73"/>
      <use x="414.095703" xlink:href="#DejaVuSans-69"/>
      <use x="441.878906" xlink:href="#DejaVuSans-74"/>
      <use x="481.087891" xlink:href="#DejaVuSans-69"/>
      <use x="508.871094" xlink:href="#DejaVuSans-76"/>
      <use x="568.050781" xlink:href="#DejaVuSans-65"/>
      <use x="629.574219" xlink:href="#DejaVuSans-20"/>
      <use x="661.361328" xlink:href="#DejaVuSans-52"/>
      <use x="728.59375" xlink:href="#DejaVuSans-61"/>
      <use x="789.873047" xlink:href="#DejaVuSans-74"/>
      <use x="829.082031" xlink:href="#DejaVuSans-65"/>
     </g>
    </g>
   </g>
   <g id="line2d_13">
    <path clip-path="url(#p51fb395a5c)" d="M 126 640.8 
L 126 597.4 
L 129.201639 597.4 
L 129.201639 591.8 
L 132.403279 591.8 
L 132.403279 580.6 
L 138.806557 580.6 
L 138.806557 573.6 
L 142.008197 573.6 
L 142.008197 555.4 
L 148.411475 555.4 
L 148.411475 534.4 
L 151.613115 534.4 
L 151.613115 502.2 
L 154.814754 502.2 
L 154.814754 499.4 
L 158.016393 499.4 
L 158.016393 457.4 
L 161.218033 457.4 
L 161.218033 423.8 
L 164.419672 423.8 
L 164.419672 409.8 
L 167.621311 409.8 
L 167.621311 402.8 
L 170.822951 402.8 
L 170.822951 400 
L 174.02459 400 
L 174.02459 397.2 
L 180.427869 397.2 
L 180.427869 384.6 
L 183.629508 384.6 
L 183.629508 377.6 
L 186.831148 377.6 
L 186.831148 366.4 
L 190.032787 366.4 
L 190.032787 342.6 
L 193.234426 342.6 
L 193.234426 339.8 
L 196.436066 339.8 
L 196.436066 337 
L 199.637705 337 
L 199.637705 335.6 
L 206.040984 335.6 
L 206.040984 330 
L 212.444262 330 
L 212.444262 317.4 
L 215.645902 317.4 
L 215.645902 314.6 
L 218.847541 314.6 
L 218.847541 313.2 
L 222.04918 313.2 
L 222.04918 311.8 
L 231.654098 311.8 
L 231.654098 306.2 
L 244.460656 306.2 
L 244.460656 304.8 
L 247.662295 304.8 
L 247.662295 300.6 
L 257.267213 300.6 
L 257.267213 296.4 
L 270.07377 296.4 
L 270.07377 295 
L 273.27541 295 
L 273.27541 293.6 
L 276.477049 293.6 
L 276.477049 285.2 
L 279.678689 285.2 
L 279.678689 283.8 
L 282.880328 283.8 
L 282.880328 276.8 
L 286.081967 276.8 
L 286.081967 274 
L 289.283607 274 
L 289.283607 267 
L 298.888525 267 
L 298.888525 265.6 
L 302.090164 265.6 
L 302.090164 262.8 
L 305.291803 262.8 
L 305.291803 261.4 
L 311.695082 261.4 
L 311.695082 258.6 
L 314.896721 258.6 
L 314.896721 255.8 
L 321.3 255.8 
L 321.3 254.4 
L 324.501639 254.4 
L 324.501639 251.6 
L 334.106557 251.6 
L 334.106557 250.2 
L 337.308197 250.2 
L 337.308197 247.4 
L 343.711475 247.4 
L 343.711475 246 
L 346.913115 246 
L 346.913115 232 
L 350.114754 232 
L 350.114754 230.6 
L 356.518033 230.6 
L 356.518033 227.8 
L 359.719672 227.8 
L 359.719672 226.4 
L 362.921311 226.4 
L 362.921311 225 
L 372.52623 225 
L 372.52623 223.6 
L 378.929508 223.6 
L 378.929508 220.8 
L 382.131148 220.8 
L 382.131148 215.2 
L 394.937705 215.2 
L 394.937705 213.8 
L 398.139344 213.8 
L 398.139344 211 
L 401.340984 211 
L 401.340984 208.2 
L 407.744262 208.2 
L 407.744262 206.8 
L 410.945902 206.8 
L 410.945902 205.4 
L 414.147541 205.4 
L 414.147541 204 
L 417.34918 204 
L 417.34918 201.2 
L 423.752459 201.2 
L 423.752459 197 
L 426.954098 197 
L 426.954098 190 
L 430.155738 190 
L 430.155738 188.6 
L 433.357377 188.6 
L 433.357377 183 
L 442.962295 183 
L 442.962295 178.8 
L 449.365574 178.8 
L 449.365574 177.4 
L 452.567213 177.4 
L 452.567213 176 
L 455.768852 176 
L 455.768852 174.6 
L 471.777049 174.6 
L 471.777049 173.2 
L 478.180328 173.2 
L 478.180328 171.8 
L 494.188525 171.8 
L 494.188525 170.4 
L 497.390164 170.4 
L 497.390164 167.6 
L 500.591803 167.6 
L 500.591803 164.8 
L 503.793443 164.8 
L 503.793443 157.8 
L 513.398361 157.8 
L 513.398361 155 
L 519.801639 155 
L 519.801639 153.6 
L 523.003279 153.6 
L 523.003279 150.8 
L 529.406557 150.8 
L 529.406557 149.4 
L 532.608197 149.4 
L 532.608197 146.6 
L 535.809836 146.6 
L 535.809836 142.4 
L 539.011475 142.4 
L 539.011475 141 
L 542.213115 141 
L 542.213115 138.2 
L 558.221311 138.2 
L 558.221311 136.8 
L 567.82623 136.8 
L 567.82623 135.4 
L 577.431148 135.4 
L 577.431148 134 
L 580.632787 134 
L 580.632787 132.6 
L 587.036066 132.6 
L 587.036066 131.2 
L 590.237705 131.2 
L 590.237705 127 
L 596.640984 127 
L 596.640984 125.6 
L 609.447541 125.6 
L 609.447541 124.2 
L 612.64918 124.2 
L 612.64918 122.8 
L 615.85082 122.8 
L 615.85082 121.4 
L 622.254098 121.4 
L 622.254098 118.6 
L 635.060656 118.6 
L 635.060656 117.2 
L 654.270492 117.2 
L 654.270492 115.8 
L 660.67377 115.8 
L 660.67377 114.4 
L 670.278689 114.4 
L 670.278689 113 
L 676.681967 113 
L 676.681967 110.2 
L 679.883607 110.2 
L 679.883607 108.8 
L 683.085246 108.8 
L 683.085246 107.4 
L 686.286885 107.4 
L 686.286885 106 
L 689.488525 106 
L 689.488525 104.6 
L 702.295082 104.6 
L 702.295082 103.2 
L 724.706557 103.2 
L 724.706557 100.4 
L 759.92459 100.4 
L 759.92459 96.2 
L 775.932787 96.2 
L 775.932787 94.8 
L 795.142623 94.8 
L 795.142623 93.4 
L 801.545902 93.4 
L 801.545902 92 
L 843.167213 92 
L 843.167213 90.6 
L 846.368852 90.6 
L 846.368852 89.2 
L 849.570492 89.2 
L 849.570492 87.8 
L 891.191803 87.8 
L 891.191803 86.4 
L 907.2 86.4 
L 907.2 86.4 
" style="fill:none;stroke:#1f77b4;stroke-linecap:square;stroke-width:1.5;"/>
   </g>
   <g id="line2d_14">
    <path clip-path="url(#p51fb395a5c)" d="M 126 640.8 
L 126 621.064078 
L 128.360121 621.064078 
L 128.360121 615.681553 
L 130.720242 615.681553 
L 130.720242 601.328155 
L 133.080363 601.328155 
L 133.080363 592.357282 
L 135.440483 592.357282 
L 135.440483 588.768932 
L 137.800604 588.768932 
L 137.800604 579.798058 
L 140.160725 579.798058 
L 140.160725 576.209709 
L 142.520846 576.209709 
L 142.520846 561.856311 
L 147.241088 561.856311 
L 147.241088 554.679612 
L 149.601208 554.679612 
L 149.601208 543.914563 
L 151.961329 543.914563 
L 151.961329 542.120388 
L 156.681571 542.120388 
L 156.681571 536.737864 
L 161.401813 536.737864 
L 161.401813 534.943689 
L 163.761934 534.943689 
L 163.761934 533.149515 
L 166.122054 533.149515 
L 166.122054 524.178641 
L 170.842296 524.178641 
L 170.842296 513.413592 
L 173.202417 513.413592 
L 173.202417 490.08932 
L 175.562538 490.08932 
L 175.562538 486.500971 
L 182.6429 486.500971 
L 182.6429 470.353398 
L 185.003021 470.353398 
L 185.003021 468.559223 
L 187.363142 468.559223 
L 187.363142 454.205825 
L 192.083384 454.205825 
L 192.083384 443.440777 
L 194.443505 443.440777 
L 194.443505 441.646602 
L 196.803625 441.646602 
L 196.803625 438.058252 
L 199.163746 438.058252 
L 199.163746 436.264078 
L 201.523867 436.264078 
L 201.523867 434.469903 
L 206.244109 434.469903 
L 206.244109 432.675728 
L 208.60423 432.675728 
L 208.60423 430.881553 
L 210.96435 430.881553 
L 210.96435 429.087379 
L 213.324471 429.087379 
L 213.324471 425.499029 
L 215.684592 425.499029 
L 215.684592 421.91068 
L 218.044713 421.91068 
L 218.044713 416.528155 
L 220.404834 416.528155 
L 220.404834 409.351456 
L 222.764955 409.351456 
L 222.764955 405.763107 
L 225.125076 405.763107 
L 225.125076 398.586408 
L 229.845317 398.586408 
L 229.845317 387.821359 
L 236.92568 387.821359 
L 236.92568 386.027184 
L 239.285801 386.027184 
L 239.285801 382.438835 
L 244.006042 382.438835 
L 244.006042 366.291262 
L 248.726284 366.291262 
L 248.726284 364.497087 
L 253.446526 364.497087 
L 253.446526 362.702913 
L 260.526888 362.702913 
L 260.526888 351.937864 
L 267.607251 351.937864 
L 267.607251 350.143689 
L 269.967372 350.143689 
L 269.967372 346.55534 
L 274.687613 346.55534 
L 274.687613 344.761165 
L 277.047734 344.761165 
L 277.047734 342.96699 
L 281.767976 342.96699 
L 281.767976 341.172816 
L 286.488218 341.172816 
L 286.488218 339.378641 
L 291.208459 339.378641 
L 291.208459 335.790291 
L 293.56858 335.790291 
L 293.56858 332.201942 
L 295.928701 332.201942 
L 295.928701 330.407767 
L 300.648943 330.407767 
L 300.648943 326.819417 
L 303.009063 326.819417 
L 303.009063 325.025243 
L 305.369184 325.025243 
L 305.369184 321.436893 
L 310.089426 321.436893 
L 310.089426 319.642718 
L 312.449547 319.642718 
L 312.449547 316.054369 
L 314.809668 316.054369 
L 314.809668 314.260194 
L 317.169789 314.260194 
L 317.169789 312.466019 
L 319.529909 312.466019 
L 319.529909 305.28932 
L 324.250151 305.28932 
L 324.250151 301.700971 
L 331.330514 301.700971 
L 331.330514 298.112621 
L 333.690634 298.112621 
L 333.690634 296.318447 
L 336.050755 296.318447 
L 336.050755 294.524272 
L 338.410876 294.524272 
L 338.410876 290.935922 
L 340.770997 290.935922 
L 340.770997 287.347573 
L 345.491239 287.347573 
L 345.491239 285.553398 
L 347.85136 285.553398 
L 347.85136 271.2 
L 350.21148 271.2 
L 350.21148 267.61165 
L 352.571601 267.61165 
L 352.571601 265.817476 
L 354.931722 265.817476 
L 354.931722 260.434951 
L 357.291843 260.434951 
L 357.291843 251.464078 
L 359.651964 251.464078 
L 359.651964 249.669903 
L 362.012085 249.669903 
L 362.012085 244.287379 
L 371.452568 244.287379 
L 371.452568 242.493204 
L 376.17281 242.493204 
L 376.17281 240.699029 
L 378.532931 240.699029 
L 378.532931 237.11068 
L 380.893051 237.11068 
L 380.893051 235.316505 
L 390.333535 235.316505 
L 390.333535 233.52233 
L 395.053776 233.52233 
L 395.053776 231.728155 
L 397.413897 231.728155 
L 397.413897 229.933981 
L 399.774018 229.933981 
L 399.774018 220.963107 
L 402.134139 220.963107 
L 402.134139 219.168932 
L 406.854381 219.168932 
L 406.854381 217.374757 
L 409.214502 217.374757 
L 409.214502 215.580583 
L 411.574622 215.580583 
L 411.574622 211.992233 
L 413.934743 211.992233 
L 413.934743 208.403883 
L 418.654985 208.403883 
L 418.654985 204.815534 
L 425.735347 204.815534 
L 425.735347 203.021359 
L 428.095468 203.021359 
L 428.095468 199.43301 
L 437.535952 199.43301 
L 437.535952 195.84466 
L 446.976435 195.84466 
L 446.976435 194.050485 
L 451.696677 194.050485 
L 451.696677 192.256311 
L 456.416918 192.256311 
L 456.416918 190.462136 
L 461.13716 190.462136 
L 461.13716 188.667961 
L 463.497281 188.667961 
L 463.497281 185.079612 
L 472.937764 185.079612 
L 472.937764 179.697087 
L 477.658006 179.697087 
L 477.658006 172.520388 
L 480.018127 172.520388 
L 480.018127 170.726214 
L 489.45861 170.726214 
L 489.45861 167.137864 
L 491.818731 167.137864 
L 491.818731 165.343689 
L 503.619335 165.343689 
L 503.619335 159.961165 
L 505.979456 159.961165 
L 505.979456 158.16699 
L 520.140181 158.16699 
L 520.140181 156.372816 
L 539.021148 156.372816 
L 539.021148 154.578641 
L 541.381269 154.578641 
L 541.381269 152.784466 
L 546.101511 152.784466 
L 546.101511 150.990291 
L 557.902115 150.990291 
L 557.902115 149.196117 
L 564.982477 149.196117 
L 564.982477 143.813592 
L 572.06284 143.813592 
L 572.06284 142.019417 
L 574.422961 142.019417 
L 574.422961 138.431068 
L 581.503323 138.431068 
L 581.503323 134.842718 
L 583.863444 134.842718 
L 583.863444 133.048544 
L 590.943807 133.048544 
L 590.943807 129.460194 
L 600.38429 129.460194 
L 600.38429 127.666019 
L 616.905136 127.666019 
L 616.905136 125.871845 
L 628.70574 125.871845 
L 628.70574 124.07767 
L 631.065861 124.07767 
L 631.065861 122.283495 
L 647.586707 122.283495 
L 647.586707 120.48932 
L 661.747432 120.48932 
L 661.747432 118.695146 
L 664.107553 118.695146 
L 664.107553 116.900971 
L 668.827795 116.900971 
L 668.827795 115.106796 
L 690.068882 115.106796 
L 690.068882 113.312621 
L 694.789124 113.312621 
L 694.789124 109.724272 
L 701.869486 109.724272 
L 701.869486 107.930097 
L 704.229607 107.930097 
L 704.229607 104.341748 
L 706.589728 104.341748 
L 706.589728 102.547573 
L 718.390332 102.547573 
L 718.390332 98.959223 
L 720.750453 98.959223 
L 720.750453 95.370874 
L 744.351662 95.370874 
L 744.351662 93.576699 
L 751.432024 93.576699 
L 751.432024 91.782524 
L 767.95287 91.782524 
L 767.95287 89.98835 
L 775.033233 89.98835 
L 775.033233 88.194175 
L 859.997583 88.194175 
L 859.997583 86.4 
L 907.2 86.4 
L 907.2 86.4 
" style="fill:none;stroke:#ff7f0e;stroke-linecap:square;stroke-width:1.5;"/>
   </g>
   <g id="line2d_15">
    <path clip-path="url(#p51fb395a5c)" d="M 126 640.8 
L 907.2 86.4 
" style="fill:none;stroke:#000000;stroke-dasharray:5.55,2.4;stroke-dashoffset:0;stroke-width:1.5;"/>
   </g>
   <g id="patch_3">
    <path d="M 126 640.8 
L 126 86.4 
" style="fill:none;stroke:#000000;stroke-linecap:square;stroke-linejoin:miter;stroke-width:0.8;"/>
   </g>
   <g id="patch_4">
    <path d="M 907.2 640.8 
L 907.2 86.4 
" style="fill:none;stroke:#000000;stroke-linecap:square;stroke-linejoin:miter;stroke-width:0.8;"/>
   </g>
   <g id="patch_5">
    <path d="M 126 640.8 
L 907.2 640.8 
" style="fill:none;stroke:#000000;stroke-linecap:square;stroke-linejoin:miter;stroke-width:0.8;"/>
   </g>
   <g id="patch_6">
    <path d="M 126 86.4 
L 907.2 86.4 
" style="fill:none;stroke:#000000;stroke-linecap:square;stroke-linejoin:miter;stroke-width:0.8;"/>
   </g>
   <g id="text_15">
    <!-- ROC curve : KL_0 = 0.158 &amp; KL_1 = 0.113 -->
    <g transform="translate(390.244688 80.4)scale(0.12 -0.12)">
     <defs>
      <path d="M 2522 4238 
Q 1834 4238 1429 3725 
Q 1025 3213 1025 2328 
Q 1025 1447 1429 934 
Q 1834 422 2522 422 
Q 3209 422 3611 934 
Q 4013 1447 4013 2328 
Q 4013 3213 3611 3725 
Q 3209 4238 2522 4238 
z
M 2522 4750 
Q 3503 4750 4090 4092 
Q 4678 3434 4678 2328 
Q 4678 1225 4090 567 
Q 3503 -91 2522 -91 
Q 1538 -91 948 565 
Q 359 1222 359 2328 
Q 359 3434 948 4092 
Q 1538 4750 2522 4750 
z
" id="DejaVuSans-4f" transform="scale(0.015625)"/>
      <path d="M 4122 4306 
L 4122 3641 
Q 3803 3938 3442 4084 
Q 3081 4231 2675 4231 
Q 1875 4231 1450 3742 
Q 1025 3253 1025 2328 
Q 1025 1406 1450 917 
Q 1875 428 2675 428 
Q 3081 428 3442 575 
Q 3803 722 4122 1019 
L 4122 359 
Q 3791 134 3420 21 
Q 3050 -91 2638 -91 
Q 1578 -91 968 557 
Q 359 1206 359 2328 
Q 359 3453 968 4101 
Q 1578 4750 2638 4750 
Q 3056 4750 3426 4639 
Q 3797 4528 4122 4306 
z
" id="DejaVuSans-43" transform="scale(0.015625)"/>
      <path d="M 3122 3366 
L 3122 2828 
Q 2878 2963 2633 3030 
Q 2388 3097 2138 3097 
Q 1578 3097 1268 2742 
Q 959 2388 959 1747 
Q 959 1106 1268 751 
Q 1578 397 2138 397 
Q 2388 397 2633 464 
Q 2878 531 3122 666 
L 3122 134 
Q 2881 22 2623 -34 
Q 2366 -91 2075 -91 
Q 1284 -91 818 406 
Q 353 903 353 1747 
Q 353 2603 823 3093 
Q 1294 3584 2113 3584 
Q 2378 3584 2631 3529 
Q 2884 3475 3122 3366 
z
" id="DejaVuSans-63" transform="scale(0.015625)"/>
      <path d="M 750 794 
L 1409 794 
L 1409 0 
L 750 0 
L 750 794 
z
M 750 3309 
L 1409 3309 
L 1409 2516 
L 750 2516 
L 750 3309 
z
" id="DejaVuSans-3a" transform="scale(0.015625)"/>
      <path d="M 628 4666 
L 1259 4666 
L 1259 2694 
L 3353 4666 
L 4166 4666 
L 1850 2491 
L 4331 0 
L 3500 0 
L 1259 2247 
L 1259 0 
L 628 0 
L 628 4666 
z
" id="DejaVuSans-4b" transform="scale(0.015625)"/>
      <path d="M 628 4666 
L 1259 4666 
L 1259 531 
L 3531 531 
L 3531 0 
L 628 0 
L 628 4666 
z
" id="DejaVuSans-4c" transform="scale(0.015625)"/>
      <path d="M 3263 -1063 
L 3263 -1509 
L -63 -1509 
L -63 -1063 
L 3263 -1063 
z
" id="DejaVuSans-5f" transform="scale(0.015625)"/>
      <path d="M 678 2906 
L 4684 2906 
L 4684 2381 
L 678 2381 
L 678 2906 
z
M 678 1631 
L 4684 1631 
L 4684 1100 
L 678 1100 
L 678 1631 
z
" id="DejaVuSans-3d" transform="scale(0.015625)"/>
      <path d="M 691 4666 
L 3169 4666 
L 3169 4134 
L 1269 4134 
L 1269 2991 
Q 1406 3038 1543 3061 
Q 1681 3084 1819 3084 
Q 2600 3084 3056 2656 
Q 3513 2228 3513 1497 
Q 3513 744 3044 326 
Q 2575 -91 1722 -91 
Q 1428 -91 1123 -41 
Q 819 9 494 109 
L 494 744 
Q 775 591 1075 516 
Q 1375 441 1709 441 
Q 2250 441 2565 725 
Q 2881 1009 2881 1497 
Q 2881 1984 2565 2268 
Q 2250 2553 1709 2553 
Q 1456 2553 1204 2497 
Q 953 2441 691 2322 
L 691 4666 
z
" id="DejaVuSans-35" transform="scale(0.015625)"/>
      <path d="M 1556 2509 
Q 1272 2256 1139 2004 
Q 1006 1753 1006 1478 
Q 1006 1022 1337 719 
Q 1669 416 2169 416 
Q 2466 416 2725 514 
Q 2984 613 3213 813 
L 1556 2509 
z
M 1997 2859 
L 3584 1234 
Q 3769 1513 3872 1830 
Q 3975 2147 3994 2503 
L 4575 2503 
Q 4538 2091 4375 1687 
Q 4213 1284 3922 891 
L 4794 0 
L 4006 0 
L 3559 459 
Q 3234 181 2878 45 
Q 2522 -91 2113 -91 
Q 1359 -91 881 339 
Q 403 769 403 1441 
Q 403 1841 612 2192 
Q 822 2544 1241 2853 
Q 1091 3050 1012 3245 
Q 934 3441 934 3628 
Q 934 4134 1281 4442 
Q 1628 4750 2203 4750 
Q 2463 4750 2720 4694 
Q 2978 4638 3244 4525 
L 3244 3956 
Q 2972 4103 2725 4179 
Q 2478 4256 2266 4256 
Q 1938 4256 1733 4082 
Q 1528 3909 1528 3634 
Q 1528 3475 1620 3314 
Q 1713 3153 1997 2859 
z
" id="DejaVuSans-26" transform="scale(0.015625)"/>
      <path d="M 2597 2516 
Q 3050 2419 3304 2112 
Q 3559 1806 3559 1356 
Q 3559 666 3084 287 
Q 2609 -91 1734 -91 
Q 1441 -91 1130 -33 
Q 819 25 488 141 
L 488 750 
Q 750 597 1062 519 
Q 1375 441 1716 441 
Q 2309 441 2620 675 
Q 2931 909 2931 1356 
Q 2931 1769 2642 2001 
Q 2353 2234 1838 2234 
L 1294 2234 
L 1294 2753 
L 1863 2753 
Q 2328 2753 2575 2939 
Q 2822 3125 2822 3475 
Q 2822 3834 2567 4026 
Q 2313 4219 1838 4219 
Q 1578 4219 1281 4162 
Q 984 4106 628 3988 
L 628 4550 
Q 988 4650 1302 4700 
Q 1616 4750 1894 4750 
Q 2613 4750 3031 4423 
Q 3450 4097 3450 3541 
Q 3450 3153 3228 2886 
Q 3006 2619 2597 2516 
z
" id="DejaVuSans-33" transform="scale(0.015625)"/>
     </defs>
     <use xlink:href="#DejaVuSans-52"/>
     <use x="69.482422" xlink:href="#DejaVuSans-4f"/>
     <use x="148.193359" xlink:href="#DejaVuSans-43"/>
     <use x="218.017578" xlink:href="#DejaVuSans-20"/>
     <use x="249.804688" xlink:href="#DejaVuSans-63"/>
     <use x="304.785156" xlink:href="#DejaVuSans-75"/>
     <use x="368.164062" xlink:href="#DejaVuSans-72"/>
     <use x="409.277344" xlink:href="#DejaVuSans-76"/>
     <use x="468.457031" xlink:href="#DejaVuSans-65"/>
     <use x="529.980469" xlink:href="#DejaVuSans-20"/>
     <use x="561.767578" xlink:href="#DejaVuSans-3a"/>
     <use x="595.458984" xlink:href="#DejaVuSans-20"/>
     <use x="627.246094" xlink:href="#DejaVuSans-4b"/>
     <use x="692.822266" xlink:href="#DejaVuSans-4c"/>
     <use x="748.535156" xlink:href="#DejaVuSans-5f"/>
     <use x="798.535156" xlink:href="#DejaVuSans-30"/>
     <use x="862.158203" xlink:href="#DejaVuSans-20"/>
     <use x="893.945312" xlink:href="#DejaVuSans-3d"/>
     <use x="977.734375" xlink:href="#DejaVuSans-20"/>
     <use x="1009.521484" xlink:href="#DejaVuSans-30"/>
     <use x="1073.144531" xlink:href="#DejaVuSans-2e"/>
     <use x="1104.931641" xlink:href="#DejaVuSans-31"/>
     <use x="1168.554688" xlink:href="#DejaVuSans-35"/>
     <use x="1232.177734" xlink:href="#DejaVuSans-38"/>
     <use x="1295.800781" xlink:href="#DejaVuSans-20"/>
     <use x="1327.587891" xlink:href="#DejaVuSans-26"/>
     <use x="1405.566406" xlink:href="#DejaVuSans-20"/>
     <use x="1437.353516" xlink:href="#DejaVuSans-4b"/>
     <use x="1502.929688" xlink:href="#DejaVuSans-4c"/>
     <use x="1558.642578" xlink:href="#DejaVuSans-5f"/>
     <use x="1608.642578" xlink:href="#DejaVuSans-31"/>
     <use x="1672.265625" xlink:href="#DejaVuSans-20"/>
     <use x="1704.052734" xlink:href="#DejaVuSans-3d"/>
     <use x="1787.841797" xlink:href="#DejaVuSans-20"/>
     <use x="1819.628906" xlink:href="#DejaVuSans-30"/>
     <use x="1883.251953" xlink:href="#DejaVuSans-2e"/>
     <use x="1915.039062" xlink:href="#DejaVuSans-31"/>
     <use x="1978.662109" xlink:href="#DejaVuSans-31"/>
     <use x="2042.285156" xlink:href="#DejaVuSans-33"/>
    </g>
   </g>
   <g id="legend_1">
    <g id="patch_7">
     <path d="M 133 123.75625 
L 286.015625 123.75625 
Q 288.015625 123.75625 288.015625 121.75625 
L 288.015625 93.4 
Q 288.015625 91.4 286.015625 91.4 
L 133 91.4 
Q 131 91.4 131 93.4 
L 131 121.75625 
Q 131 123.75625 133 123.75625 
z
" style="fill:#ffffff;opacity:0.8;stroke:#cccccc;stroke-linejoin:miter;"/>
    </g>
    <g id="line2d_16">
     <path d="M 135 99.498437 
L 155 99.498437 
" style="fill:none;stroke:#1f77b4;stroke-linecap:square;stroke-width:1.5;"/>
    </g>
    <g id="line2d_17"/>
    <g id="text_16">
     <!-- tt = 1 with AUC = 0.806 -->
     <g transform="translate(163 102.998437)scale(0.1 -0.1)">
      <defs>
       <path d="M 269 3500 
L 844 3500 
L 1563 769 
L 2278 3500 
L 2956 3500 
L 3675 769 
L 4391 3500 
L 4966 3500 
L 4050 0 
L 3372 0 
L 2619 2869 
L 1863 0 
L 1184 0 
L 269 3500 
z
" id="DejaVuSans-77" transform="scale(0.015625)"/>
       <path d="M 3513 2113 
L 3513 0 
L 2938 0 
L 2938 2094 
Q 2938 2591 2744 2837 
Q 2550 3084 2163 3084 
Q 1697 3084 1428 2787 
Q 1159 2491 1159 1978 
L 1159 0 
L 581 0 
L 581 4863 
L 1159 4863 
L 1159 2956 
Q 1366 3272 1645 3428 
Q 1925 3584 2291 3584 
Q 2894 3584 3203 3211 
Q 3513 2838 3513 2113 
z
" id="DejaVuSans-68" transform="scale(0.015625)"/>
       <path d="M 2188 4044 
L 1331 1722 
L 3047 1722 
L 2188 4044 
z
M 1831 4666 
L 2547 4666 
L 4325 0 
L 3669 0 
L 3244 1197 
L 1141 1197 
L 716 0 
L 50 0 
L 1831 4666 
z
" id="DejaVuSans-41" transform="scale(0.015625)"/>
       <path d="M 556 4666 
L 1191 4666 
L 1191 1831 
Q 1191 1081 1462 751 
Q 1734 422 2344 422 
Q 2950 422 3222 751 
Q 3494 1081 3494 1831 
L 3494 4666 
L 4128 4666 
L 4128 1753 
Q 4128 841 3676 375 
Q 3225 -91 2344 -91 
Q 1459 -91 1007 375 
Q 556 841 556 1753 
L 556 4666 
z
" id="DejaVuSans-55" transform="scale(0.015625)"/>
      </defs>
      <use xlink:href="#DejaVuSans-74"/>
      <use x="39.208984" xlink:href="#DejaVuSans-74"/>
      <use x="78.417969" xlink:href="#DejaVuSans-20"/>
      <use x="110.205078" xlink:href="#DejaVuSans-3d"/>
      <use x="193.994141" xlink:href="#DejaVuSans-20"/>
      <use x="225.78125" xlink:href="#DejaVuSans-31"/>
      <use x="289.404297" xlink:href="#DejaVuSans-20"/>
      <use x="321.191406" xlink:href="#DejaVuSans-77"/>
      <use x="402.978516" xlink:href="#DejaVuSans-69"/>
      <use x="430.761719" xlink:href="#DejaVuSans-74"/>
      <use x="469.970703" xlink:href="#DejaVuSans-68"/>
      <use x="533.349609" xlink:href="#DejaVuSans-20"/>
      <use x="565.136719" xlink:href="#DejaVuSans-41"/>
      <use x="633.544922" xlink:href="#DejaVuSans-55"/>
      <use x="706.738281" xlink:href="#DejaVuSans-43"/>
      <use x="776.5625" xlink:href="#DejaVuSans-20"/>
      <use x="808.349609" xlink:href="#DejaVuSans-3d"/>
      <use x="892.138672" xlink:href="#DejaVuSans-20"/>
      <use x="923.925781" xlink:href="#DejaVuSans-30"/>
      <use x="987.548828" xlink:href="#DejaVuSans-2e"/>
      <use x="1019.335938" xlink:href="#DejaVuSans-38"/>
      <use x="1082.958984" xlink:href="#DejaVuSans-30"/>
      <use x="1146.582031" xlink:href="#DejaVuSans-36"/>
     </g>
    </g>
    <g id="line2d_18">
     <path d="M 135 114.176562 
L 155 114.176562 
" style="fill:none;stroke:#ff7f0e;stroke-linecap:square;stroke-width:1.5;"/>
    </g>
    <g id="line2d_19"/>
    <g id="text_17">
     <!-- tt = 0 with AUC = 0.766 -->
     <g transform="translate(163 117.676562)scale(0.1 -0.1)">
      <defs>
       <path d="M 525 4666 
L 3525 4666 
L 3525 4397 
L 1831 0 
L 1172 0 
L 2766 4134 
L 525 4134 
L 525 4666 
z
" id="DejaVuSans-37" transform="scale(0.015625)"/>
      </defs>
      <use xlink:href="#DejaVuSans-74"/>
      <use x="39.208984" xlink:href="#DejaVuSans-74"/>
      <use x="78.417969" xlink:href="#DejaVuSans-20"/>
      <use x="110.205078" xlink:href="#DejaVuSans-3d"/>
      <use x="193.994141" xlink:href="#DejaVuSans-20"/>
      <use x="225.78125" xlink:href="#DejaVuSans-30"/>
      <use x="289.404297" xlink:href="#DejaVuSans-20"/>
      <use x="321.191406" xlink:href="#DejaVuSans-77"/>
      <use x="402.978516" xlink:href="#DejaVuSans-69"/>
      <use x="430.761719" xlink:href="#DejaVuSans-74"/>
      <use x="469.970703" xlink:href="#DejaVuSans-68"/>
      <use x="533.349609" xlink:href="#DejaVuSans-20"/>
      <use x="565.136719" xlink:href="#DejaVuSans-41"/>
      <use x="633.544922" xlink:href="#DejaVuSans-55"/>
      <use x="706.738281" xlink:href="#DejaVuSans-43"/>
      <use x="776.5625" xlink:href="#DejaVuSans-20"/>
      <use x="808.349609" xlink:href="#DejaVuSans-3d"/>
      <use x="892.138672" xlink:href="#DejaVuSans-20"/>
      <use x="923.925781" xlink:href="#DejaVuSans-30"/>
      <use x="987.548828" xlink:href="#DejaVuSans-2e"/>
      <use x="1019.335938" xlink:href="#DejaVuSans-37"/>
      <use x="1082.958984" xlink:href="#DejaVuSans-36"/>
      <use x="1146.582031" xlink:href="#DejaVuSans-36"/>
     </g>
    </g>
   </g>
  </g>
 </g>
 <defs>
  <clipPath id="p51fb395a5c">
   <rect height="554.4" width="781.2" x="126" y="86.4"/>
  </clipPath>
 </defs>
</svg>
